<svg width="16" height="16" viewBox="0 0 16 16" fill="none" xmlns="http://www.w3.org/2000/svg">
<path d="M13.4398 4.56C11.5198 1.6 7.59982 0.72 4.55982 2.56C1.59982 4.4 0.639824 8.4 2.55982 11.36L2.71982 11.6L2.07982 14L4.47982 13.36L4.71982 13.52C5.75982 14.08 6.87982 14.4 7.99982 14.4C9.19982 14.4 10.3998 14.08 11.4398 13.44C14.3998 11.52 15.2798 7.6 13.4398 4.56ZM11.7598 10.72C11.4398 11.2 11.0398 11.52 10.4798 11.6C10.1598 11.6 9.75982 11.76 8.15982 11.12C6.79982 10.48 5.67982 9.44 4.87982 8.24C4.39982 7.68 4.15982 6.96 4.07982 6.24C4.07982 5.6 4.31982 5.04 4.71982 4.64C4.87982 4.48 5.03982 4.4 5.19982 4.4H5.59982C5.75982 4.4 5.91982 4.4 5.99982 4.72C6.15982 5.12 6.55982 6.08 6.55982 6.16C6.63982 6.24 6.63982 6.4 6.55982 6.48C6.63982 6.64 6.55982 6.8 6.47982 6.88C6.39982 6.96 6.31982 7.12 6.23982 7.2C6.07982 7.28 5.99982 7.44 6.07982 7.6C6.39982 8.08 6.79982 8.56 7.19982 8.96C7.67982 9.36 8.15982 9.68 8.71982 9.92C8.87982 10 9.03982 10 9.11982 9.84C9.19982 9.68 9.59982 9.28 9.75982 9.12C9.91982 8.96 9.99982 8.96 10.1598 9.04L11.4398 9.68C11.5998 9.76 11.7598 9.84 11.8398 9.92C11.9198 10.16 11.9198 10.48 11.7598 10.72Z" fill="white"/>
</svg>
