<svg width="19" height="22" viewBox="0 0 19 22" fill="none" xmlns="http://www.w3.org/2000/svg">
<g clip-path="url(#clip0_42_658)">
<path d="M2.58133 2.67122L2.56213 2.65115L2.3824 2.46512L2.35947 2.44179L0 0L0 12.8414L8.8496 22V17.4364L3.14667 11.5337L3.14667 7.82166L3.80267 8.50017L3.90773 8.60973L4.03627 8.74262L4.13493 8.84567V8.84513L8.8496 13.7238V9.15862L2.58133 2.67122Z" fill="#002060"/>
<path d="M16.6405 2.44179L16.6176 2.46512L16.4384 2.65115L16.4192 2.67122L10.1504 9.15862V13.7238L14.8645 8.84513L14.8651 8.84567L14.9771 8.72906L15.0923 8.60973L15.2043 8.49258L15.8533 7.82166V11.5337L10.1504 17.4364V22L19 12.8414V0L16.6405 2.44179Z" fill="#002060"/>
</g>
<defs>
<clipPath id="clip0_42_658">
<rect width="19" height="22" fill="white"/>
</clipPath>
</defs>
</svg>
