<svg width="24" height="24" viewBox="0 0 24 24" fill="none" xmlns="http://www.w3.org/2000/svg">
<path d="M9.87562 7.49958C9.80636 7.57049 9.76758 7.66569 9.76758 7.76482C9.76758 7.86394 9.80636 7.95914 9.87562 8.03005L13.7454 11.9998L9.87562 15.9688C9.80636 16.0398 9.76758 16.1349 9.76758 16.2341C9.76758 16.3332 9.80636 16.4284 9.87562 16.4993C9.90929 16.5339 9.94954 16.5614 9.994 16.5801C10.0385 16.5989 10.0862 16.6086 10.1345 16.6086C10.1828 16.6086 10.2305 16.5989 10.275 16.5801C10.3195 16.5614 10.3597 16.5339 10.3934 16.4993L14.5085 12.277C14.5808 12.2028 14.6212 12.1034 14.6212 11.9998C14.6212 11.8963 14.5808 11.7968 14.5085 11.7227L10.3934 7.50038C10.3597 7.4658 10.3195 7.43831 10.275 7.41955C10.2305 7.40078 10.1828 7.39111 10.1345 7.39111C10.0862 7.39111 10.0385 7.40078 9.994 7.41955C9.94954 7.43831 9.90929 7.4658 9.87562 7.50038V7.49958Z" fill="#FFCE1B"/>
<circle cx="12" cy="12" r="11.75" stroke="#FFCE1B" stroke-width="0.5"/>
</svg>
