<svg width="16" height="16" viewBox="0 0 16 16" fill="none" xmlns="http://www.w3.org/2000/svg">
<path d="M5.58994 1.65283C5.94001 1.54728 6.31566 1.56482 6.65438 1.70252C6.99309 1.84021 7.27442 2.08977 7.45154 2.40963L7.51074 2.52883L8.04034 3.70563C8.20107 4.06282 8.25324 4.45937 8.19037 4.84598C8.1275 5.23258 7.95237 5.59218 7.68674 5.88003L7.58034 5.98563L6.74594 6.76403C6.59554 6.90643 6.70834 7.45763 7.25234 8.40003C7.74194 9.24803 8.14034 9.64403 8.33634 9.66563H8.37074L8.41314 9.65763L10.0531 9.15603C10.2736 9.08843 10.5088 9.08576 10.7307 9.14833C10.9525 9.21089 11.1517 9.33605 11.3043 9.50883L11.3771 9.60083L12.4627 11.1048C12.6755 11.3996 12.7815 11.7581 12.7633 12.1212C12.7452 12.4843 12.6039 12.8304 12.3627 13.1024L12.2651 13.2032L11.8315 13.6144C11.4422 13.9832 10.9551 14.2323 10.4283 14.3323C9.90141 14.4323 9.35692 14.3789 8.85954 14.1784C7.31154 13.5544 5.90514 12.1288 4.62754 9.91603C3.34754 7.69763 2.81554 5.76403 3.05314 4.10803C3.12504 3.60744 3.33117 3.13568 3.64965 2.74283C3.96813 2.34998 4.38705 2.05072 4.86194 1.87683L5.01634 1.82563L5.58994 1.65283V1.65283Z" fill="#EDF1FB"/>
</svg>
