<svg width="130" height="146" viewBox="0 0 130 146" fill="none" xmlns="http://www.w3.org/2000/svg">
<rect width="130" height="146" fill="#001F60"/>
<path d="M44.0647 20.0423L44.0122 19.9894L43.5203 19.4989L43.4575 19.4375L37 13V46.8545L61.22 71V58.9687L45.6119 43.407V33.6207L47.4073 35.4095L47.6948 35.6984L48.0466 36.0487L48.3167 36.3204V36.319L61.22 49.181V37.1455L44.0647 20.0423Z" fill="white"/>
<path d="M82.5418 19.4375L82.479 19.4989L81.9886 19.9894L81.936 20.0423L64.7793 37.1455V49.181L77.6811 36.319L77.6826 36.3204L77.9891 36.013L78.3044 35.6984L78.6109 35.3895L80.3873 33.6207V43.407L64.7793 58.9687V71L88.9993 46.8545V13L82.5418 19.4375Z" fill="white"/>
<path d="M38.0885 88.168C37.4245 88.168 36.8085 88.064 36.2405 87.856C35.6805 87.64 35.1925 87.336 34.7765 86.944C34.3685 86.552 34.0485 86.092 33.8165 85.564C33.5845 85.028 33.4685 84.44 33.4685 83.8C33.4685 83.16 33.5845 82.576 33.8165 82.048C34.0485 81.512 34.3685 81.048 34.7765 80.656C35.1925 80.264 35.6805 79.964 36.2405 79.756C36.8085 79.54 37.4245 79.432 38.0885 79.432C38.8645 79.432 39.5565 79.568 40.1645 79.84C40.7805 80.112 41.2925 80.504 41.7005 81.016L40.1885 82.384C39.9165 82.064 39.6165 81.82 39.2885 81.652C38.9685 81.484 38.6085 81.4 38.2085 81.4C37.8645 81.4 37.5485 81.456 37.2605 81.568C36.9725 81.68 36.7245 81.844 36.5165 82.06C36.3165 82.268 36.1565 82.52 36.0365 82.816C35.9245 83.112 35.8685 83.44 35.8685 83.8C35.8685 84.16 35.9245 84.488 36.0365 84.784C36.1565 85.08 36.3165 85.336 36.5165 85.552C36.7245 85.76 36.9725 85.92 37.2605 86.032C37.5485 86.144 37.8645 86.2 38.2085 86.2C38.6085 86.2 38.9685 86.116 39.2885 85.948C39.6165 85.78 39.9165 85.536 40.1885 85.216L41.7005 86.584C41.2925 87.088 40.7805 87.48 40.1645 87.76C39.5565 88.032 38.8645 88.168 38.0885 88.168ZM46.8201 88.168C46.1481 88.168 45.5281 88.06 44.9601 87.844C44.3921 87.628 43.8961 87.324 43.4721 86.932C43.0561 86.532 42.7321 86.068 42.5001 85.54C42.2681 85.012 42.1521 84.432 42.1521 83.8C42.1521 83.168 42.2681 82.588 42.5001 82.06C42.7321 81.532 43.0561 81.072 43.4721 80.68C43.8961 80.28 44.3921 79.972 44.9601 79.756C45.5281 79.54 46.1481 79.432 46.8201 79.432C47.5001 79.432 48.1201 79.54 48.6801 79.756C49.2481 79.972 49.7401 80.28 50.1561 80.68C50.5721 81.072 50.8961 81.532 51.1281 82.06C51.3681 82.588 51.4881 83.168 51.4881 83.8C51.4881 84.432 51.3681 85.016 51.1281 85.552C50.8961 86.08 50.5721 86.54 50.1561 86.932C49.7401 87.324 49.2481 87.628 48.6801 87.844C48.1201 88.06 47.5001 88.168 46.8201 88.168ZM46.8201 86.2C47.1401 86.2 47.4361 86.144 47.7081 86.032C47.9881 85.92 48.2281 85.76 48.4281 85.552C48.6361 85.336 48.7961 85.08 48.9081 84.784C49.0281 84.488 49.0881 84.16 49.0881 83.8C49.0881 83.432 49.0281 83.104 48.9081 82.816C48.7961 82.52 48.6361 82.268 48.4281 82.06C48.2281 81.844 47.9881 81.68 47.7081 81.568C47.4361 81.456 47.1401 81.4 46.8201 81.4C46.5001 81.4 46.2001 81.456 45.9201 81.568C45.6481 81.68 45.4081 81.844 45.2001 82.06C45.0001 82.268 44.8401 82.52 44.7201 82.816C44.6081 83.104 44.5521 83.432 44.5521 83.8C44.5521 84.16 44.6081 84.488 44.7201 84.784C44.8401 85.08 45.0001 85.336 45.2001 85.552C45.4081 85.76 45.6481 85.92 45.9201 86.032C46.2001 86.144 46.5001 86.2 46.8201 86.2ZM52.7326 88V79.6H54.6886L59.3206 85.192H58.3966V79.6H60.7246V88H58.7686L54.1366 82.408H55.0606V88H52.7326ZM62.4005 88V79.6H64.3565L68.9885 85.192H68.0645V79.6H70.3925V88H68.4365L63.8045 82.408H64.7285V88H62.4005ZM74.2525 82.852H78.1525V84.628H74.2525V82.852ZM74.4205 86.164H78.8125V88H72.0685V79.6H78.6565V81.436H74.4205V86.164ZM80.131 88V79.6H82.507V86.116H86.515V88H80.131ZM87.4552 88V79.6H89.8312V86.116H93.8392V88H87.4552Z" fill="white"/>
<path d="M24.9972 116V108.3H25.8112V116H24.9972ZM35.3675 110.17C35.8368 110.17 36.2438 110.262 36.5885 110.445C36.9405 110.621 37.2118 110.892 37.4025 111.259C37.6005 111.626 37.6995 112.088 37.6995 112.645V116H36.9185V112.722C36.9185 112.113 36.7718 111.655 36.4785 111.347C36.1925 111.032 35.7855 110.874 35.2575 110.874C34.8615 110.874 34.5168 110.958 34.2235 111.127C33.9375 111.288 33.7138 111.527 33.5525 111.842C33.3985 112.15 33.3215 112.524 33.3215 112.964V116H32.5405V112.722C32.5405 112.113 32.3938 111.655 32.1005 111.347C31.8072 111.032 31.3965 110.874 30.8685 110.874C30.4798 110.874 30.1388 110.958 29.8455 111.127C29.5522 111.288 29.3248 111.527 29.1635 111.842C29.0095 112.15 28.9325 112.524 28.9325 112.964V116H28.1515V110.225H28.8995V111.787L28.7785 111.512C28.9545 111.094 29.2368 110.768 29.6255 110.533C30.0215 110.291 30.4872 110.17 31.0225 110.17C31.5872 110.17 32.0675 110.313 32.4635 110.599C32.8595 110.878 33.1162 111.299 33.2335 111.864L32.9255 111.743C33.0942 111.274 33.3912 110.896 33.8165 110.61C34.2492 110.317 34.7662 110.17 35.3675 110.17ZM47.0335 110.17C47.5028 110.17 47.9098 110.262 48.2545 110.445C48.6065 110.621 48.8778 110.892 49.0685 111.259C49.2665 111.626 49.3655 112.088 49.3655 112.645V116H48.5845V112.722C48.5845 112.113 48.4378 111.655 48.1445 111.347C47.8585 111.032 47.4515 110.874 46.9235 110.874C46.5275 110.874 46.1828 110.958 45.8895 111.127C45.6035 111.288 45.3798 111.527 45.2185 111.842C45.0645 112.15 44.9875 112.524 44.9875 112.964V116H44.2065V112.722C44.2065 112.113 44.0598 111.655 43.7665 111.347C43.4732 111.032 43.0625 110.874 42.5345 110.874C42.1458 110.874 41.8048 110.958 41.5115 111.127C41.2182 111.288 40.9908 111.527 40.8295 111.842C40.6755 112.15 40.5985 112.524 40.5985 112.964V116H39.8175V110.225H40.5655V111.787L40.4445 111.512C40.6205 111.094 40.9028 110.768 41.2915 110.533C41.6875 110.291 42.1532 110.17 42.6885 110.17C43.2532 110.17 43.7335 110.313 44.1295 110.599C44.5255 110.878 44.7822 111.299 44.8995 111.864L44.5915 111.743C44.7602 111.274 45.0572 110.896 45.4825 110.61C45.9152 110.317 46.4322 110.17 47.0335 110.17ZM51.4835 116V110.225H52.2645V116H51.4835ZM51.8795 108.949C51.7182 108.949 51.5825 108.894 51.4725 108.784C51.3625 108.674 51.3075 108.542 51.3075 108.388C51.3075 108.234 51.3625 108.106 51.4725 108.003C51.5825 107.893 51.7182 107.838 51.8795 107.838C52.0409 107.838 52.1765 107.889 52.2865 107.992C52.3965 108.095 52.4515 108.223 52.4515 108.377C52.4515 108.538 52.3965 108.674 52.2865 108.784C52.1839 108.894 52.0482 108.949 51.8795 108.949ZM56.9016 118.189C56.3736 118.189 55.8676 118.112 55.3836 117.958C54.8996 117.804 54.5073 117.584 54.2066 117.298L54.6026 116.704C54.874 116.946 55.2076 117.137 55.6036 117.276C56.007 117.423 56.4323 117.496 56.8796 117.496C57.613 117.496 58.152 117.324 58.4966 116.979C58.8413 116.642 59.0136 116.114 59.0136 115.395V113.954L59.1236 112.964L59.0466 111.974V110.225H59.7946V115.296C59.7946 116.293 59.549 117.023 59.0576 117.485C58.5736 117.954 57.855 118.189 56.9016 118.189ZM56.7586 115.78C56.2086 115.78 55.7136 115.663 55.2736 115.428C54.8336 115.186 54.4853 114.852 54.2286 114.427C53.9793 114.002 53.8546 113.514 53.8546 112.964C53.8546 112.414 53.9793 111.93 54.2286 111.512C54.4853 111.087 54.8336 110.757 55.2736 110.522C55.7136 110.287 56.2086 110.17 56.7586 110.17C57.272 110.17 57.734 110.276 58.1446 110.489C58.5553 110.702 58.8816 111.017 59.1236 111.435C59.3656 111.853 59.4866 112.363 59.4866 112.964C59.4866 113.565 59.3656 114.075 59.1236 114.493C58.8816 114.911 58.5553 115.23 58.1446 115.45C57.734 115.67 57.272 115.78 56.7586 115.78ZM56.8356 115.087C57.261 115.087 57.6386 114.999 57.9686 114.823C58.2986 114.64 58.559 114.39 58.7496 114.075C58.9403 113.752 59.0356 113.382 59.0356 112.964C59.0356 112.546 58.9403 112.179 58.7496 111.864C58.559 111.549 58.2986 111.303 57.9686 111.127C57.6386 110.944 57.261 110.852 56.8356 110.852C56.4176 110.852 56.04 110.944 55.7026 111.127C55.3726 111.303 55.1123 111.549 54.9216 111.864C54.7383 112.179 54.6466 112.546 54.6466 112.964C54.6466 113.382 54.7383 113.752 54.9216 114.075C55.1123 114.39 55.3726 114.64 55.7026 114.823C56.04 114.999 56.4176 115.087 56.8356 115.087ZM61.9679 116V110.225H62.7159V111.798L62.6389 111.523C62.8002 111.083 63.0716 110.749 63.4529 110.522C63.8342 110.287 64.3072 110.17 64.8719 110.17V110.929C64.8426 110.929 64.8132 110.929 64.7839 110.929C64.7546 110.922 64.7252 110.918 64.6959 110.918C64.0872 110.918 63.6106 111.105 63.2659 111.479C62.9212 111.846 62.7489 112.37 62.7489 113.052V116H61.9679ZM69.4863 116V114.724L69.4533 114.515V112.381C69.4533 111.89 69.314 111.512 69.0353 111.248C68.764 110.984 68.357 110.852 67.8143 110.852C67.4403 110.852 67.0847 110.914 66.7473 111.039C66.41 111.164 66.124 111.329 65.8893 111.534L65.5373 110.951C65.8307 110.702 66.1827 110.511 66.5933 110.379C67.004 110.24 67.4367 110.17 67.8913 110.17C68.6393 110.17 69.215 110.357 69.6183 110.731C70.029 111.098 70.2343 111.659 70.2343 112.414V116H69.4863ZM67.4953 116.055C67.0627 116.055 66.685 115.985 66.3623 115.846C66.047 115.699 65.805 115.501 65.6363 115.252C65.4677 114.995 65.3833 114.702 65.3833 114.372C65.3833 114.071 65.453 113.8 65.5923 113.558C65.739 113.309 65.9737 113.111 66.2963 112.964C66.6263 112.81 67.0663 112.733 67.6163 112.733H69.6073V113.316H67.6383C67.081 113.316 66.6923 113.415 66.4723 113.613C66.2597 113.811 66.1533 114.057 66.1533 114.35C66.1533 114.68 66.2817 114.944 66.5383 115.142C66.795 115.34 67.1543 115.439 67.6163 115.439C68.0563 115.439 68.434 115.34 68.7493 115.142C69.072 114.937 69.3067 114.643 69.4533 114.262L69.6293 114.801C69.4827 115.182 69.226 115.487 68.8593 115.714C68.5 115.941 68.0453 116.055 67.4953 116.055ZM74.1816 116.055C73.6389 116.055 73.2209 115.908 72.9276 115.615C72.6343 115.322 72.4876 114.907 72.4876 114.372V108.949H73.2686V114.328C73.2686 114.665 73.3529 114.926 73.5216 115.109C73.6976 115.292 73.9469 115.384 74.2696 115.384C74.6143 115.384 74.9003 115.285 75.1276 115.087L75.4026 115.648C75.2486 115.787 75.0616 115.89 74.8416 115.956C74.6289 116.022 74.4089 116.055 74.1816 116.055ZM71.4536 110.874V110.225H75.0286V110.874H71.4536ZM76.8244 116V110.225H77.6054V116H76.8244ZM77.2204 108.949C77.059 108.949 76.9234 108.894 76.8134 108.784C76.7034 108.674 76.6484 108.542 76.6484 108.388C76.6484 108.234 76.7034 108.106 76.8134 108.003C76.9234 107.893 77.059 107.838 77.2204 107.838C77.3817 107.838 77.5174 107.889 77.6274 107.992C77.7374 108.095 77.7924 108.223 77.7924 108.377C77.7924 108.538 77.7374 108.674 77.6274 108.784C77.5247 108.894 77.389 108.949 77.2204 108.949ZM82.1325 116.055C81.5751 116.055 81.0728 115.93 80.6255 115.681C80.1855 115.424 79.8371 115.076 79.5805 114.636C79.3238 114.189 79.1955 113.679 79.1955 113.107C79.1955 112.528 79.3238 112.018 79.5805 111.578C79.8371 111.138 80.1855 110.793 80.6255 110.544C81.0655 110.295 81.5678 110.17 82.1325 110.17C82.7045 110.17 83.2105 110.295 83.6505 110.544C84.0978 110.793 84.4461 111.138 84.6955 111.578C84.9521 112.018 85.0805 112.528 85.0805 113.107C85.0805 113.679 84.9521 114.189 84.6955 114.636C84.4461 115.076 84.0978 115.424 83.6505 115.681C83.2031 115.93 82.6971 116.055 82.1325 116.055ZM82.1325 115.362C82.5505 115.362 82.9208 115.27 83.2435 115.087C83.5661 114.896 83.8191 114.632 84.0025 114.295C84.1931 113.95 84.2885 113.554 84.2885 113.107C84.2885 112.652 84.1931 112.256 84.0025 111.919C83.8191 111.582 83.5661 111.321 83.2435 111.138C82.9208 110.947 82.5541 110.852 82.1435 110.852C81.7328 110.852 81.3661 110.947 81.0435 111.138C80.7208 111.321 80.4641 111.582 80.2735 111.919C80.0828 112.256 79.9875 112.652 79.9875 113.107C79.9875 113.554 80.0828 113.95 80.2735 114.295C80.4641 114.632 80.7208 114.896 81.0435 115.087C81.3661 115.27 81.7291 115.362 82.1325 115.362ZM89.6229 110.17C90.0923 110.17 90.5029 110.262 90.8549 110.445C91.2143 110.621 91.4929 110.892 91.6909 111.259C91.8963 111.626 91.9989 112.088 91.9989 112.645V116H91.2179V112.722C91.2179 112.113 91.0639 111.655 90.7559 111.347C90.4553 111.032 90.0299 110.874 89.4799 110.874C89.0693 110.874 88.7099 110.958 88.4019 111.127C88.1013 111.288 87.8666 111.527 87.6979 111.842C87.5366 112.15 87.4559 112.524 87.4559 112.964V116H86.6749V110.225H87.4229V111.809L87.3019 111.512C87.4853 111.094 87.7786 110.768 88.1819 110.533C88.5853 110.291 89.0656 110.17 89.6229 110.17ZM99.0224 116.066C98.5238 116.066 98.0801 115.985 97.6914 115.824C97.3028 115.655 96.9948 115.424 96.7674 115.131C96.5474 114.838 96.4374 114.497 96.4374 114.108C96.4374 113.778 96.5108 113.477 96.6574 113.206C96.8041 112.927 97.0388 112.656 97.3614 112.392C97.6914 112.121 98.1278 111.838 98.6704 111.545C99.1324 111.288 99.4918 111.068 99.7484 110.885C100.012 110.694 100.199 110.515 100.309 110.346C100.419 110.17 100.474 109.983 100.474 109.785C100.474 109.499 100.375 109.268 100.177 109.092C99.9868 108.916 99.7118 108.828 99.3524 108.828C98.9638 108.828 98.6631 108.927 98.4504 109.125C98.2378 109.316 98.1314 109.565 98.1314 109.873C98.1314 110.027 98.1534 110.174 98.1974 110.313C98.2488 110.452 98.3404 110.606 98.4724 110.775C98.6118 110.944 98.8024 111.156 99.0444 111.413L103.114 115.604L102.663 116.121L98.4174 111.754C98.1608 111.483 97.9554 111.248 97.8014 111.05C97.6548 110.845 97.5521 110.65 97.4934 110.467C97.4348 110.284 97.4054 110.089 97.4054 109.884C97.4054 109.554 97.4824 109.268 97.6364 109.026C97.7978 108.777 98.0251 108.586 98.3184 108.454C98.6118 108.315 98.9564 108.245 99.3524 108.245C99.7118 108.245 100.023 108.307 100.287 108.432C100.559 108.549 100.768 108.722 100.914 108.949C101.068 109.176 101.145 109.451 101.145 109.774C101.145 110.053 101.076 110.313 100.936 110.555C100.804 110.797 100.584 111.035 100.276 111.27C99.9684 111.497 99.5504 111.754 99.0224 112.04C98.5604 112.297 98.1938 112.531 97.9224 112.744C97.6584 112.957 97.4714 113.166 97.3614 113.371C97.2514 113.569 97.1964 113.789 97.1964 114.031C97.1964 114.31 97.2734 114.555 97.4274 114.768C97.5888 114.973 97.8088 115.135 98.0874 115.252C98.3734 115.362 98.6998 115.417 99.0664 115.417C99.5798 115.417 100.038 115.311 100.441 115.098C100.845 114.885 101.182 114.563 101.453 114.13C101.732 113.697 101.934 113.155 102.058 112.502L102.685 112.7C102.546 113.433 102.308 114.049 101.97 114.548C101.633 115.047 101.215 115.424 100.716 115.681C100.218 115.938 99.6531 116.066 99.0224 116.066ZM38.0414 129.066C37.462 129.066 36.9267 128.971 36.4354 128.78C35.944 128.582 35.5187 128.307 35.1594 127.955C34.8 127.603 34.5177 127.189 34.3124 126.712C34.1144 126.235 34.0154 125.715 34.0154 125.15C34.0154 124.585 34.1144 124.065 34.3124 123.588C34.5177 123.111 34.8 122.697 35.1594 122.345C35.526 121.993 35.955 121.722 36.4464 121.531C36.9377 121.333 37.473 121.234 38.0524 121.234C38.6097 121.234 39.134 121.329 39.6254 121.52C40.1167 121.703 40.531 121.982 40.8684 122.356L40.3514 122.873C40.036 122.55 39.6877 122.319 39.3064 122.18C38.925 122.033 38.5144 121.96 38.0744 121.96C37.6124 121.96 37.1834 122.041 36.7874 122.202C36.3914 122.356 36.0467 122.58 35.7534 122.873C35.46 123.159 35.229 123.496 35.0604 123.885C34.899 124.266 34.8184 124.688 34.8184 125.15C34.8184 125.612 34.899 126.037 35.0604 126.426C35.229 126.807 35.46 127.145 35.7534 127.438C36.0467 127.724 36.3914 127.948 36.7874 128.109C37.1834 128.263 37.6124 128.34 38.0744 128.34C38.5144 128.34 38.925 128.267 39.3064 128.12C39.6877 127.973 40.036 127.739 40.3514 127.416L40.8684 127.933C40.531 128.307 40.1167 128.589 39.6254 128.78C39.134 128.971 38.606 129.066 38.0414 129.066ZM44.5348 129.055C43.9775 129.055 43.4751 128.93 43.0278 128.681C42.5878 128.424 42.2395 128.076 41.9828 127.636C41.7261 127.189 41.5978 126.679 41.5978 126.107C41.5978 125.528 41.7261 125.018 41.9828 124.578C42.2395 124.138 42.5878 123.793 43.0278 123.544C43.4678 123.295 43.9701 123.17 44.5348 123.17C45.1068 123.17 45.6128 123.295 46.0528 123.544C46.5001 123.793 46.8485 124.138 47.0978 124.578C47.3545 125.018 47.4828 125.528 47.4828 126.107C47.4828 126.679 47.3545 127.189 47.0978 127.636C46.8485 128.076 46.5001 128.424 46.0528 128.681C45.6055 128.93 45.0995 129.055 44.5348 129.055ZM44.5348 128.362C44.9528 128.362 45.3231 128.27 45.6458 128.087C45.9685 127.896 46.2215 127.632 46.4048 127.295C46.5955 126.95 46.6908 126.554 46.6908 126.107C46.6908 125.652 46.5955 125.256 46.4048 124.919C46.2215 124.582 45.9685 124.321 45.6458 124.138C45.3231 123.947 44.9565 123.852 44.5458 123.852C44.1351 123.852 43.7685 123.947 43.4458 124.138C43.1231 124.321 42.8665 124.582 42.6758 124.919C42.4851 125.256 42.3898 125.652 42.3898 126.107C42.3898 126.554 42.4851 126.95 42.6758 127.295C42.8665 127.632 43.1231 127.896 43.4458 128.087C43.7685 128.27 44.1315 128.362 44.5348 128.362ZM52.0253 123.17C52.4946 123.17 52.9053 123.262 53.2573 123.445C53.6166 123.621 53.8953 123.892 54.0933 124.259C54.2986 124.626 54.4013 125.088 54.4013 125.645V129H53.6203V125.722C53.6203 125.113 53.4663 124.655 53.1583 124.347C52.8576 124.032 52.4323 123.874 51.8823 123.874C51.4716 123.874 51.1123 123.958 50.8043 124.127C50.5036 124.288 50.2689 124.527 50.1003 124.842C49.9389 125.15 49.8583 125.524 49.8583 125.964V129H49.0773V123.225H49.8253V124.809L49.7043 124.512C49.8876 124.094 50.1809 123.768 50.5843 123.533C50.9876 123.291 51.4679 123.17 52.0253 123.17ZM58.0619 129.055C57.5852 129.055 57.1342 128.989 56.7089 128.857C56.2835 128.718 55.9499 128.545 55.7079 128.34L56.0599 127.724C56.2945 127.9 56.5952 128.054 56.9619 128.186C57.3285 128.311 57.7135 128.373 58.1169 128.373C58.6669 128.373 59.0629 128.289 59.3049 128.12C59.5469 127.944 59.6679 127.713 59.6679 127.427C59.6679 127.214 59.5982 127.049 59.4589 126.932C59.3269 126.807 59.1509 126.716 58.9309 126.657C58.7109 126.591 58.4652 126.536 58.1939 126.492C57.9225 126.448 57.6512 126.397 57.3799 126.338C57.1159 126.279 56.8739 126.195 56.6539 126.085C56.4339 125.968 56.2542 125.81 56.1149 125.612C55.9829 125.414 55.9169 125.15 55.9169 124.82C55.9169 124.505 56.0049 124.222 56.1809 123.973C56.3569 123.724 56.6135 123.529 56.9509 123.39C57.2955 123.243 57.7135 123.17 58.2049 123.17C58.5789 123.17 58.9529 123.221 59.3269 123.324C59.7009 123.419 60.0089 123.548 60.2509 123.709L59.9099 124.336C59.6532 124.16 59.3782 124.035 59.0849 123.962C58.7915 123.881 58.4982 123.841 58.2049 123.841C57.6842 123.841 57.2992 123.933 57.0499 124.116C56.8079 124.292 56.6869 124.519 56.6869 124.798C56.6869 125.018 56.7529 125.19 56.8849 125.315C57.0242 125.44 57.2039 125.539 57.4239 125.612C57.6512 125.678 57.8969 125.733 58.1609 125.777C58.4322 125.821 58.6999 125.876 58.9639 125.942C59.2352 126.001 59.4809 126.085 59.7009 126.195C59.9282 126.298 60.1079 126.448 60.2399 126.646C60.3792 126.837 60.4489 127.09 60.4489 127.405C60.4489 127.742 60.3535 128.036 60.1629 128.285C59.9795 128.527 59.7082 128.718 59.3489 128.857C58.9969 128.989 58.5679 129.055 58.0619 129.055ZM64.269 129.055C63.7776 129.055 63.3486 128.963 62.982 128.78C62.6153 128.597 62.3293 128.322 62.124 127.955C61.926 127.588 61.827 127.13 61.827 126.58V123.225H62.608V126.492C62.608 127.108 62.7583 127.574 63.059 127.889C63.367 128.197 63.796 128.351 64.346 128.351C64.7493 128.351 65.0976 128.27 65.391 128.109C65.6916 127.94 65.919 127.698 66.073 127.383C66.2343 127.068 66.315 126.69 66.315 126.25V123.225H67.096V129H66.348V127.416L66.469 127.702C66.2856 128.127 65.9996 128.461 65.611 128.703C65.2296 128.938 64.7823 129.055 64.269 129.055ZM69.2726 129V120.838H70.0536V129H69.2726ZM74.0849 129.055C73.5423 129.055 73.1243 128.908 72.8309 128.615C72.5376 128.322 72.3909 127.907 72.3909 127.372V121.949H73.1719V127.328C73.1719 127.665 73.2563 127.926 73.4249 128.109C73.6009 128.292 73.8503 128.384 74.1729 128.384C74.5176 128.384 74.8036 128.285 75.0309 128.087L75.3059 128.648C75.1519 128.787 74.9649 128.89 74.7449 128.956C74.5323 129.022 74.3123 129.055 74.0849 129.055ZM71.3569 123.874V123.225H74.9319V123.874H71.3569ZM76.7277 129V123.225H77.5087V129H76.7277ZM77.1237 121.949C76.9623 121.949 76.8267 121.894 76.7167 121.784C76.6067 121.674 76.5517 121.542 76.5517 121.388C76.5517 121.234 76.6067 121.106 76.7167 121.003C76.8267 120.893 76.9623 120.838 77.1237 120.838C77.285 120.838 77.4207 120.889 77.5307 120.992C77.6407 121.095 77.6957 121.223 77.6957 121.377C77.6957 121.538 77.6407 121.674 77.5307 121.784C77.428 121.894 77.2923 121.949 77.1237 121.949ZM82.6298 123.17C83.0991 123.17 83.5098 123.262 83.8618 123.445C84.2211 123.621 84.4998 123.892 84.6978 124.259C84.9031 124.626 85.0058 125.088 85.0058 125.645V129H84.2248V125.722C84.2248 125.113 84.0708 124.655 83.7628 124.347C83.4621 124.032 83.0368 123.874 82.4868 123.874C82.0761 123.874 81.7168 123.958 81.4088 124.127C81.1081 124.288 80.8734 124.527 80.7048 124.842C80.5434 125.15 80.4628 125.524 80.4628 125.964V129H79.6818V123.225H80.4298V124.809L80.3088 124.512C80.4921 124.094 80.7854 123.768 81.1888 123.533C81.5921 123.291 82.0724 123.17 82.6298 123.17ZM89.5794 131.189C89.0514 131.189 88.5454 131.112 88.0614 130.958C87.5774 130.804 87.185 130.584 86.8844 130.298L87.2804 129.704C87.5517 129.946 87.8854 130.137 88.2814 130.276C88.6847 130.423 89.11 130.496 89.5574 130.496C90.2907 130.496 90.8297 130.324 91.1744 129.979C91.519 129.642 91.6914 129.114 91.6914 128.395V126.954L91.8014 125.964L91.7244 124.974V123.225H92.4724V128.296C92.4724 129.293 92.2267 130.023 91.7354 130.485C91.2514 130.954 90.5327 131.189 89.5794 131.189ZM89.4364 128.78C88.8864 128.78 88.3914 128.663 87.9514 128.428C87.5114 128.186 87.163 127.852 86.9064 127.427C86.657 127.002 86.5324 126.514 86.5324 125.964C86.5324 125.414 86.657 124.93 86.9064 124.512C87.163 124.087 87.5114 123.757 87.9514 123.522C88.3914 123.287 88.8864 123.17 89.4364 123.17C89.9497 123.17 90.4117 123.276 90.8224 123.489C91.233 123.702 91.5594 124.017 91.8014 124.435C92.0434 124.853 92.1644 125.363 92.1644 125.964C92.1644 126.565 92.0434 127.075 91.8014 127.493C91.5594 127.911 91.233 128.23 90.8224 128.45C90.4117 128.67 89.9497 128.78 89.4364 128.78ZM89.5134 128.087C89.9387 128.087 90.3164 127.999 90.6464 127.823C90.9764 127.64 91.2367 127.39 91.4274 127.075C91.618 126.752 91.7134 126.382 91.7134 125.964C91.7134 125.546 91.618 125.179 91.4274 124.864C91.2367 124.549 90.9764 124.303 90.6464 124.127C90.3164 123.944 89.9387 123.852 89.5134 123.852C89.0954 123.852 88.7177 123.944 88.3804 124.127C88.0504 124.303 87.79 124.549 87.5994 124.864C87.416 125.179 87.3244 125.546 87.3244 125.964C87.3244 126.382 87.416 126.752 87.5994 127.075C87.79 127.39 88.0504 127.64 88.3804 127.823C88.7177 127.999 89.0954 128.087 89.5134 128.087Z" fill="white"/>
<line x1="23" y1="98.5" x2="103" y2="98.5" stroke="#FFCE1B"/>
</svg>
