<svg width="210" height="44" viewBox="0 0 210 44" fill="none" xmlns="http://www.w3.org/2000/svg">
<path d="M5.29853 5.34244L5.25912 5.3023L4.89019 4.93023L4.84312 4.88359L0 0V25.6828L18.165 44V34.8728L6.45895 23.0674V15.6433L7.80547 17.0003L8.02114 17.2195L8.28497 17.4852L8.48749 17.6913V17.6903L18.165 27.4477V18.3172L5.29853 5.34244Z" fill="white"/>
<path d="M34.1578 4.88359L34.1107 4.93023L33.7429 5.3023L33.7035 5.34244L20.8359 18.3172V27.4477L30.5123 17.6903L30.5134 17.6913L30.7433 17.4581L30.9798 17.2195L31.2097 16.9852L32.542 15.6433V23.0674L20.8359 34.8728V44L39.0009 25.6828V0L34.1578 4.88359Z" fill="white"/>
<path d="M58.8476 22.28C57.7409 22.28 56.7142 22.1067 55.7676 21.76C54.8342 21.4 54.0209 20.8933 53.3276 20.24C52.6476 19.5867 52.1142 18.82 51.7276 17.94C51.3409 17.0467 51.1476 16.0667 51.1476 15C51.1476 13.9333 51.3409 12.96 51.7276 12.08C52.1142 11.1867 52.6476 10.4133 53.3276 9.76C54.0209 9.10667 54.8342 8.60667 55.7676 8.26C56.7142 7.9 57.7409 7.72 58.8476 7.72C60.1409 7.72 61.2942 7.94667 62.3076 8.4C63.3342 8.85333 64.1876 9.50667 64.8676 10.36L62.3476 12.64C61.8942 12.1067 61.3942 11.7 60.8476 11.42C60.3142 11.14 59.7142 11 59.0476 11C58.4742 11 57.9476 11.0933 57.4676 11.28C56.9876 11.4667 56.5742 11.74 56.2276 12.1C55.8942 12.4467 55.6276 12.8667 55.4276 13.36C55.2409 13.8533 55.1476 14.4 55.1476 15C55.1476 15.6 55.2409 16.1467 55.4276 16.64C55.6276 17.1333 55.8942 17.56 56.2276 17.92C56.5742 18.2667 56.9876 18.5333 57.4676 18.72C57.9476 18.9067 58.4742 19 59.0476 19C59.7142 19 60.3142 18.86 60.8476 18.58C61.3942 18.3 61.8942 17.8933 62.3476 17.36L64.8676 19.64C64.1876 20.48 63.3342 21.1333 62.3076 21.6C61.2942 22.0533 60.1409 22.28 58.8476 22.28ZM81.5002 22.28C80.3802 22.28 79.3469 22.1 78.4002 21.74C77.4536 21.38 76.6269 20.8733 75.9202 20.22C75.2269 19.5533 74.6869 18.78 74.3002 17.9C73.9136 17.02 73.7202 16.0533 73.7202 15C73.7202 13.9467 73.9136 12.98 74.3002 12.1C74.6869 11.22 75.2269 10.4533 75.9202 9.8C76.6269 9.13333 77.4536 8.62 78.4002 8.26C79.3469 7.9 80.3802 7.72 81.5002 7.72C82.6336 7.72 83.6669 7.9 84.6002 8.26C85.5469 8.62 86.3669 9.13333 87.0602 9.8C87.7536 10.4533 88.2936 11.22 88.6802 12.1C89.0802 12.98 89.2802 13.9467 89.2802 15C89.2802 16.0533 89.0802 17.0267 88.6802 17.92C88.2936 18.8 87.7536 19.5667 87.0602 20.22C86.3669 20.8733 85.5469 21.38 84.6002 21.74C83.6669 22.1 82.6336 22.28 81.5002 22.28ZM81.5002 19C82.0336 19 82.5269 18.9067 82.9802 18.72C83.4469 18.5333 83.8469 18.2667 84.1802 17.92C84.5269 17.56 84.7936 17.1333 84.9802 16.64C85.1802 16.1467 85.2802 15.6 85.2802 15C85.2802 14.3867 85.1802 13.84 84.9802 13.36C84.7936 12.8667 84.5269 12.4467 84.1802 12.1C83.8469 11.74 83.4469 11.4667 82.9802 11.28C82.5269 11.0933 82.0336 11 81.5002 11C80.9669 11 80.4669 11.0933 80.0002 11.28C79.5469 11.4667 79.1469 11.74 78.8002 12.1C78.4669 12.4467 78.2002 12.8667 78.0002 13.36C77.8136 13.84 77.7202 14.3867 77.7202 15C77.7202 15.6 77.8136 16.1467 78.0002 16.64C78.2002 17.1333 78.4669 17.56 78.8002 17.92C79.1469 18.2667 79.5469 18.5333 80.0002 18.72C80.4669 18.9067 80.9669 19 81.5002 19ZM99.4543 22V8H102.714L110.434 17.32H108.894V8H112.774V22H109.514L101.794 12.68H103.334V22H99.4543ZM123.668 22V8H126.928L134.648 17.32H133.108V8H136.988V22H133.728L126.008 12.68H127.548V22H123.668ZM151.521 13.42H158.021V16.38H151.521V13.42ZM151.801 18.94H159.121V22H147.881V8H158.861V11.06H151.801V18.94ZM169.418 22V8H173.378V18.86H180.058V22H169.418ZM189.725 22V8H193.685V18.86H200.365V22H189.725Z" fill="white"/>
<path d="M52.5089 38V31.7H53.1749V38H52.5089ZM55.2247 38V31.7H55.7737L58.6537 36.614H58.3657L61.2187 31.7H61.7677V38H61.1287V32.699H61.2817L58.6537 37.199H58.3387L55.6927 32.699H55.8637V38H55.2247ZM63.8204 38V31.7H64.3694L67.2494 36.614H66.9614L69.8144 31.7H70.3634V38H69.7244V32.699H69.8774L67.2494 37.199H66.9344L64.2884 32.699H64.4594V38H63.8204ZM72.4161 38V31.7H73.0821V38H72.4161ZM77.895 38.054C77.415 38.054 76.971 37.976 76.563 37.82C76.161 37.658 75.81 37.433 75.51 37.145C75.216 36.857 74.985 36.518 74.817 36.128C74.655 35.738 74.574 35.312 74.574 34.85C74.574 34.388 74.655 33.962 74.817 33.572C74.985 33.182 75.219 32.843 75.519 32.555C75.819 32.267 76.17 32.045 76.572 31.889C76.98 31.727 77.424 31.646 77.904 31.646C78.384 31.646 78.822 31.721 79.218 31.871C79.62 32.021 79.962 32.249 80.244 32.555L79.83 32.978C79.566 32.714 79.275 32.525 78.957 32.411C78.639 32.297 78.297 32.24 77.931 32.24C77.541 32.24 77.181 32.306 76.851 32.438C76.527 32.564 76.242 32.747 75.996 32.987C75.756 33.221 75.567 33.497 75.429 33.815C75.297 34.127 75.231 34.472 75.231 34.85C75.231 35.222 75.297 35.567 75.429 35.885C75.567 36.203 75.756 36.482 75.996 36.722C76.242 36.956 76.527 37.139 76.851 37.271C77.181 37.397 77.538 37.46 77.922 37.46C78.282 37.46 78.621 37.406 78.939 37.298C79.263 37.19 79.56 37.007 79.83 36.749L80.208 37.253C79.908 37.517 79.557 37.718 79.155 37.856C78.753 37.988 78.333 38.054 77.895 38.054ZM79.569 37.172V34.85H80.208V37.253L79.569 37.172ZM82.0929 38V31.7H84.4509C84.9849 31.7 85.4439 31.787 85.8279 31.961C86.2119 32.129 86.5059 32.375 86.7099 32.699C86.9199 33.017 87.0249 33.404 87.0249 33.86C87.0249 34.304 86.9199 34.688 86.7099 35.012C86.5059 35.33 86.2119 35.576 85.8279 35.75C85.4439 35.918 84.9849 36.002 84.4509 36.002H82.4619L82.7589 35.696V38H82.0929ZM86.3949 38L84.7749 35.714H85.4949L87.1239 38H86.3949ZM82.7589 35.75L82.4619 35.435H84.4329C85.0629 35.435 85.5399 35.297 85.8639 35.021C86.1939 34.745 86.3589 34.358 86.3589 33.86C86.3589 33.356 86.1939 32.966 85.8639 32.69C85.5399 32.414 85.0629 32.276 84.4329 32.276H82.4619L82.7589 31.961V35.75ZM87.5888 38L90.4688 31.7H91.1258L94.0058 38H93.3038L90.6578 32.087H90.9278L88.2818 38H87.5888ZM88.7228 36.317L88.9208 35.777H92.5838L92.7818 36.317H88.7228ZM95.9556 38V32.276H93.7416V31.7H98.8356V32.276H96.6216V38H95.9556ZM99.8995 38V31.7H100.566V38H99.8995ZM105.369 38.054C104.895 38.054 104.454 37.976 104.046 37.82C103.644 37.658 103.293 37.433 102.993 37.145C102.699 36.851 102.468 36.512 102.3 36.128C102.138 35.738 102.057 35.312 102.057 34.85C102.057 34.388 102.138 33.965 102.3 33.581C102.468 33.191 102.699 32.852 102.993 32.564C103.293 32.27 103.644 32.045 104.046 31.889C104.448 31.727 104.889 31.646 105.369 31.646C105.843 31.646 106.281 31.727 106.683 31.889C107.085 32.045 107.433 32.267 107.727 32.555C108.027 32.843 108.258 33.182 108.42 33.572C108.588 33.962 108.672 34.388 108.672 34.85C108.672 35.312 108.588 35.738 108.42 36.128C108.258 36.518 108.027 36.857 107.727 37.145C107.433 37.433 107.085 37.658 106.683 37.82C106.281 37.976 105.843 38.054 105.369 38.054ZM105.369 37.46C105.747 37.46 106.095 37.397 106.413 37.271C106.737 37.139 107.016 36.956 107.25 36.722C107.49 36.482 107.676 36.206 107.808 35.894C107.94 35.576 108.006 35.228 108.006 34.85C108.006 34.472 107.94 34.127 107.808 33.815C107.676 33.497 107.49 33.221 107.25 32.987C107.016 32.747 106.737 32.564 106.413 32.438C106.095 32.306 105.747 32.24 105.369 32.24C104.991 32.24 104.64 32.306 104.316 32.438C103.992 32.564 103.71 32.747 103.47 32.987C103.236 33.221 103.05 33.497 102.912 33.815C102.78 34.127 102.714 34.472 102.714 34.85C102.714 35.222 102.78 35.567 102.912 35.885C103.05 36.203 103.236 36.482 103.47 36.722C103.71 36.956 103.992 37.139 104.316 37.271C104.64 37.397 104.991 37.46 105.369 37.46ZM110.165 38V31.7H110.714L115.061 37.172H114.773V31.7H115.43V38H114.881L110.543 32.528H110.831V38H110.165ZM121.372 38.054C120.964 38.054 120.601 37.988 120.283 37.856C119.965 37.718 119.713 37.529 119.527 37.289C119.347 37.049 119.257 36.77 119.257 36.452C119.257 36.182 119.317 35.936 119.437 35.714C119.557 35.486 119.749 35.264 120.013 35.048C120.283 34.826 120.64 34.595 121.084 34.355C121.462 34.145 121.756 33.965 121.966 33.815C122.182 33.659 122.335 33.512 122.425 33.374C122.515 33.23 122.56 33.077 122.56 32.915C122.56 32.681 122.479 32.492 122.317 32.348C122.161 32.204 121.936 32.132 121.642 32.132C121.324 32.132 121.078 32.213 120.904 32.375C120.73 32.531 120.643 32.735 120.643 32.987C120.643 33.113 120.661 33.233 120.697 33.347C120.739 33.461 120.814 33.587 120.922 33.725C121.036 33.863 121.192 34.037 121.39 34.247L124.72 37.676L124.351 38.099L120.877 34.526C120.667 34.304 120.499 34.112 120.373 33.95C120.253 33.782 120.169 33.623 120.121 33.473C120.073 33.323 120.049 33.164 120.049 32.996C120.049 32.726 120.112 32.492 120.238 32.294C120.37 32.09 120.556 31.934 120.796 31.826C121.036 31.712 121.318 31.655 121.642 31.655C121.936 31.655 122.191 31.706 122.407 31.808C122.629 31.904 122.8 32.045 122.92 32.231C123.046 32.417 123.109 32.642 123.109 32.906C123.109 33.134 123.052 33.347 122.938 33.545C122.83 33.743 122.65 33.938 122.398 34.13C122.146 34.316 121.804 34.526 121.372 34.76C120.994 34.97 120.694 35.162 120.472 35.336C120.256 35.51 120.103 35.681 120.013 35.849C119.923 36.011 119.878 36.191 119.878 36.389C119.878 36.617 119.941 36.818 120.067 36.992C120.199 37.16 120.379 37.292 120.607 37.388C120.841 37.478 121.108 37.523 121.408 37.523C121.828 37.523 122.203 37.436 122.533 37.262C122.863 37.088 123.139 36.824 123.361 36.47C123.589 36.116 123.754 35.672 123.856 35.138L124.369 35.3C124.255 35.9 124.06 36.404 123.784 36.812C123.508 37.22 123.166 37.529 122.758 37.739C122.35 37.949 121.888 38.054 121.372 38.054ZM130.954 38.054C130.48 38.054 130.042 37.976 129.64 37.82C129.238 37.658 128.89 37.433 128.596 37.145C128.302 36.857 128.071 36.518 127.903 36.128C127.741 35.738 127.66 35.312 127.66 34.85C127.66 34.388 127.741 33.962 127.903 33.572C128.071 33.182 128.302 32.843 128.596 32.555C128.896 32.267 129.247 32.045 129.649 31.889C130.051 31.727 130.489 31.646 130.963 31.646C131.419 31.646 131.848 31.724 132.25 31.88C132.652 32.03 132.991 32.258 133.267 32.564L132.844 32.987C132.586 32.723 132.301 32.534 131.989 32.42C131.677 32.3 131.341 32.24 130.981 32.24C130.603 32.24 130.252 32.306 129.928 32.438C129.604 32.564 129.322 32.747 129.082 32.987C128.842 33.221 128.653 33.497 128.515 33.815C128.383 34.127 128.317 34.472 128.317 34.85C128.317 35.228 128.383 35.576 128.515 35.894C128.653 36.206 128.842 36.482 129.082 36.722C129.322 36.956 129.604 37.139 129.928 37.271C130.252 37.397 130.603 37.46 130.981 37.46C131.341 37.46 131.677 37.4 131.989 37.28C132.301 37.16 132.586 36.968 132.844 36.704L133.267 37.127C132.991 37.433 132.652 37.664 132.25 37.82C131.848 37.976 131.416 38.054 130.954 38.054ZM137.309 38.054C136.835 38.054 136.394 37.976 135.986 37.82C135.584 37.658 135.233 37.433 134.933 37.145C134.639 36.851 134.408 36.512 134.24 36.128C134.078 35.738 133.997 35.312 133.997 34.85C133.997 34.388 134.078 33.965 134.24 33.581C134.408 33.191 134.639 32.852 134.933 32.564C135.233 32.27 135.584 32.045 135.986 31.889C136.388 31.727 136.829 31.646 137.309 31.646C137.783 31.646 138.221 31.727 138.623 31.889C139.025 32.045 139.373 32.267 139.667 32.555C139.967 32.843 140.198 33.182 140.36 33.572C140.528 33.962 140.612 34.388 140.612 34.85C140.612 35.312 140.528 35.738 140.36 36.128C140.198 36.518 139.967 36.857 139.667 37.145C139.373 37.433 139.025 37.658 138.623 37.82C138.221 37.976 137.783 38.054 137.309 38.054ZM137.309 37.46C137.687 37.46 138.035 37.397 138.353 37.271C138.677 37.139 138.956 36.956 139.19 36.722C139.43 36.482 139.616 36.206 139.748 35.894C139.88 35.576 139.946 35.228 139.946 34.85C139.946 34.472 139.88 34.127 139.748 33.815C139.616 33.497 139.43 33.221 139.19 32.987C138.956 32.747 138.677 32.564 138.353 32.438C138.035 32.306 137.687 32.24 137.309 32.24C136.931 32.24 136.58 32.306 136.256 32.438C135.932 32.564 135.65 32.747 135.41 32.987C135.176 33.221 134.99 33.497 134.852 33.815C134.72 34.127 134.654 34.472 134.654 34.85C134.654 35.222 134.72 35.567 134.852 35.885C134.99 36.203 135.176 36.482 135.41 36.722C135.65 36.956 135.932 37.139 136.256 37.271C136.58 37.397 136.931 37.46 137.309 37.46ZM142.105 38V31.7H142.654L147.001 37.172H146.713V31.7H147.37V38H146.821L142.483 32.528H142.771V38H142.105ZM151.163 38.054C150.695 38.054 150.245 37.979 149.813 37.829C149.387 37.673 149.057 37.475 148.823 37.235L149.084 36.722C149.306 36.938 149.603 37.121 149.975 37.271C150.353 37.415 150.749 37.487 151.163 37.487C151.559 37.487 151.88 37.439 152.126 37.343C152.378 37.241 152.561 37.106 152.675 36.938C152.795 36.77 152.855 36.584 152.855 36.38C152.855 36.134 152.783 35.936 152.639 35.786C152.501 35.636 152.318 35.519 152.09 35.435C151.862 35.345 151.61 35.267 151.334 35.201C151.058 35.135 150.782 35.066 150.506 34.994C150.23 34.916 149.975 34.814 149.741 34.688C149.513 34.562 149.327 34.397 149.183 34.193C149.045 33.983 148.976 33.71 148.976 33.374C148.976 33.062 149.057 32.777 149.219 32.519C149.387 32.255 149.642 32.045 149.984 31.889C150.326 31.727 150.764 31.646 151.298 31.646C151.652 31.646 152.003 31.697 152.351 31.799C152.699 31.895 152.999 32.03 153.251 32.204L153.026 32.735C152.756 32.555 152.468 32.423 152.162 32.339C151.862 32.255 151.571 32.213 151.289 32.213C150.911 32.213 150.599 32.264 150.353 32.366C150.107 32.468 149.924 32.606 149.804 32.78C149.69 32.948 149.633 33.14 149.633 33.356C149.633 33.602 149.702 33.8 149.84 33.95C149.984 34.1 150.17 34.217 150.398 34.301C150.632 34.385 150.887 34.46 151.163 34.526C151.439 34.592 151.712 34.664 151.982 34.742C152.258 34.82 152.51 34.922 152.738 35.048C152.972 35.168 153.158 35.33 153.296 35.534C153.44 35.738 153.512 36.005 153.512 36.335C153.512 36.641 153.428 36.926 153.26 37.19C153.092 37.448 152.834 37.658 152.486 37.82C152.144 37.976 151.703 38.054 151.163 38.054ZM157.501 38.054C156.697 38.054 156.064 37.823 155.602 37.361C155.14 36.899 154.909 36.215 154.909 35.309V31.7H155.575V35.282C155.575 36.026 155.743 36.575 156.079 36.929C156.415 37.283 156.889 37.46 157.501 37.46C158.119 37.46 158.596 37.283 158.932 36.929C159.268 36.575 159.436 36.026 159.436 35.282V31.7H160.084V35.309C160.084 36.215 159.853 36.899 159.391 37.361C158.935 37.823 158.305 38.054 157.501 38.054ZM162.091 38V31.7H162.757V37.424H166.285V38H162.091ZM168.026 38V32.276H165.812V31.7H170.906V32.276H168.692V38H168.026ZM170.645 38L173.525 31.7H174.182L177.062 38H176.36L173.714 32.087H173.984L171.338 38H170.645ZM171.779 36.317L171.977 35.777H175.64L175.838 36.317H171.779ZM179.012 38V32.276H176.798V31.7H181.892V32.276H179.678V38H179.012ZM182.956 38V31.7H183.622V38H182.956ZM188.426 38.054C187.952 38.054 187.511 37.976 187.103 37.82C186.701 37.658 186.35 37.433 186.05 37.145C185.756 36.851 185.525 36.512 185.357 36.128C185.195 35.738 185.114 35.312 185.114 34.85C185.114 34.388 185.195 33.965 185.357 33.581C185.525 33.191 185.756 32.852 186.05 32.564C186.35 32.27 186.701 32.045 187.103 31.889C187.505 31.727 187.946 31.646 188.426 31.646C188.9 31.646 189.338 31.727 189.74 31.889C190.142 32.045 190.49 32.267 190.784 32.555C191.084 32.843 191.315 33.182 191.477 33.572C191.645 33.962 191.729 34.388 191.729 34.85C191.729 35.312 191.645 35.738 191.477 36.128C191.315 36.518 191.084 36.857 190.784 37.145C190.49 37.433 190.142 37.658 189.74 37.82C189.338 37.976 188.9 38.054 188.426 38.054ZM188.426 37.46C188.804 37.46 189.152 37.397 189.47 37.271C189.794 37.139 190.073 36.956 190.307 36.722C190.547 36.482 190.733 36.206 190.865 35.894C190.997 35.576 191.063 35.228 191.063 34.85C191.063 34.472 190.997 34.127 190.865 33.815C190.733 33.497 190.547 33.221 190.307 32.987C190.073 32.747 189.794 32.564 189.47 32.438C189.152 32.306 188.804 32.24 188.426 32.24C188.048 32.24 187.697 32.306 187.373 32.438C187.049 32.564 186.767 32.747 186.527 32.987C186.293 33.221 186.107 33.497 185.969 33.815C185.837 34.127 185.771 34.472 185.771 34.85C185.771 35.222 185.837 35.567 185.969 35.885C186.107 36.203 186.293 36.482 186.527 36.722C186.767 36.956 187.049 37.139 187.373 37.271C187.697 37.397 188.048 37.46 188.426 37.46ZM193.222 38V31.7H193.771L198.118 37.172H197.83V31.7H198.487V38H197.938L193.6 32.528H193.888V38H193.222Z" fill="white"/>
</svg>
