<svg width="16" height="16" viewBox="0 0 16 16" fill="none" xmlns="http://www.w3.org/2000/svg">
<path fill-rule="evenodd" clip-rule="evenodd" d="M4.97602 0.710748C5.75802 0.674748 6.00735 0.666748 7.99935 0.666748C9.99135 0.666748 10.2407 0.675415 11.022 0.710748C11.8033 0.746081 12.3367 0.870748 12.8033 1.05141C13.292 1.23608 13.7353 1.52475 14.102 1.89808C14.4753 2.26408 14.7633 2.70675 14.9473 3.19608C15.1287 3.66275 15.2527 4.19608 15.2887 4.97608C15.3247 5.75941 15.3327 6.00875 15.3327 8.00008C15.3327 9.99208 15.324 10.2414 15.2887 11.0234C15.2533 11.8034 15.1287 12.3367 14.9473 12.8034C14.7633 13.2928 14.4749 13.7362 14.102 14.1027C13.7353 14.4761 13.292 14.7641 12.8033 14.9481C12.3367 15.1294 11.8033 15.2534 11.0233 15.2894C10.2407 15.3254 9.99135 15.3334 7.99935 15.3334C6.00735 15.3334 5.75802 15.3247 4.97602 15.2894C4.19602 15.2541 3.66268 15.1294 3.19602 14.9481C2.70663 14.7641 2.26323 14.4756 1.89668 14.1027C1.5236 13.7365 1.23489 13.2933 1.05068 12.8041C0.870016 12.3374 0.746016 11.8041 0.710016 11.0241C0.674016 10.2407 0.666016 9.99141 0.666016 8.00008C0.666016 6.00808 0.674682 5.75875 0.710016 4.97741C0.745349 4.19608 0.870016 3.66275 1.05068 3.19608C1.23516 2.7068 1.52409 2.26362 1.89735 1.89741C2.26338 1.52442 2.70633 1.23571 3.19535 1.05141C3.66202 0.870748 4.19535 0.746748 4.97535 0.710748H4.97602ZM10.9627 2.03075C10.1893 1.99541 9.95735 1.98808 7.99935 1.98808C6.04135 1.98808 5.80935 1.99541 5.03602 2.03075C4.32068 2.06341 3.93268 2.18275 3.67402 2.28341C3.33202 2.41675 3.08735 2.57475 2.83068 2.83141C2.58738 3.06812 2.40014 3.35627 2.28268 3.67475C2.18202 3.93341 2.06268 4.32141 2.03002 5.03675C1.99468 5.81008 1.98735 6.04208 1.98735 8.00008C1.98735 9.95808 1.99468 10.1901 2.03002 10.9634C2.06268 11.6787 2.18202 12.0667 2.28268 12.3254C2.40002 12.6434 2.58735 12.9321 2.83068 13.1687C3.06735 13.4121 3.35602 13.5994 3.67402 13.7167C3.93268 13.8174 4.32068 13.9367 5.03602 13.9694C5.80935 14.0047 6.04068 14.0121 7.99935 14.0121C9.95802 14.0121 10.1893 14.0047 10.9627 13.9694C11.678 13.9367 12.066 13.8174 12.3247 13.7167C12.6667 13.5834 12.9113 13.4254 13.168 13.1687C13.4113 12.9321 13.5987 12.6434 13.716 12.3254C13.8167 12.0667 13.936 11.6787 13.9687 10.9634C14.004 10.1901 14.0113 9.95808 14.0113 8.00008C14.0113 6.04208 14.004 5.81008 13.9687 5.03675C13.936 4.32141 13.8167 3.93341 13.716 3.67475C13.5827 3.33275 13.4247 3.08808 13.168 2.83141C12.9313 2.58813 12.6432 2.40089 12.3247 2.28341C12.066 2.18275 11.678 2.06341 10.9627 2.03075V2.03075ZM7.06268 10.2607C7.58579 10.4785 8.16827 10.5079 8.71063 10.3439C9.253 10.1799 9.72161 9.83269 10.0364 9.36158C10.3512 8.89046 10.4927 8.32466 10.4367 7.76082C10.3807 7.19697 10.1307 6.67006 9.72935 6.27008C9.47351 6.0144 9.16416 5.81862 8.82357 5.69685C8.48298 5.57507 8.11963 5.53032 7.75968 5.56582C7.39972 5.60133 7.05212 5.7162 6.74188 5.90217C6.43165 6.08814 6.16651 6.34058 5.96555 6.64131C5.76459 6.94205 5.63281 7.28361 5.57969 7.64139C5.52658 7.99917 5.55345 8.36428 5.65838 8.71042C5.7633 9.05657 5.94367 9.37515 6.1865 9.64323C6.42932 9.9113 6.72857 10.1222 7.06268 10.2607ZM5.33402 5.33475C5.68403 4.98473 6.09956 4.70708 6.55688 4.51766C7.0142 4.32823 7.50435 4.23073 7.99935 4.23073C8.49435 4.23073 8.9845 4.32823 9.44182 4.51765C9.89914 4.70708 10.3147 4.98473 10.6647 5.33475C11.0147 5.68476 11.2923 6.10029 11.4818 6.55761C11.6712 7.01493 11.7687 7.50508 11.7687 8.00008C11.7687 8.49508 11.6712 8.98523 11.4818 9.44255C11.2923 9.89987 11.0147 10.3154 10.6647 10.6654C9.95779 11.3723 8.99904 11.7694 7.99935 11.7694C6.99965 11.7694 6.04091 11.3723 5.33402 10.6654C4.62712 9.95852 4.23 8.99977 4.23 8.00008C4.23 7.00039 4.62712 6.04164 5.33402 5.33475V5.33475ZM12.6047 4.79208C12.6914 4.71026 12.7609 4.61187 12.8089 4.50273C12.8569 4.39359 12.8826 4.27593 12.8843 4.1567C12.886 4.03748 12.8638 3.91911 12.819 3.80862C12.7742 3.69813 12.7076 3.59775 12.6233 3.51344C12.539 3.42913 12.4386 3.36259 12.3281 3.31776C12.2177 3.27293 12.0993 3.25073 11.9801 3.25247C11.8608 3.25421 11.7432 3.27985 11.634 3.32788C11.5249 3.37591 11.4265 3.44534 11.3447 3.53208C11.1856 3.70077 11.0984 3.92483 11.1018 4.1567C11.1052 4.38857 11.1988 4.61 11.3628 4.77398C11.5268 4.93795 11.7482 5.03157 11.9801 5.03495C12.2119 5.03833 12.436 4.95121 12.6047 4.79208V4.79208Z" fill="#002060"/>
</svg>
