<svg width="16" height="16" viewBox="0 0 16 16" fill="none" xmlns="http://www.w3.org/2000/svg">
<path d="M3.32195 4.79795C4.12755 4.79795 4.78061 4.14488 4.78061 3.33928C4.78061 2.53368 4.12755 1.88062 3.32195 1.88062C2.51635 1.88062 1.86328 2.53368 1.86328 3.33928C1.86328 4.14488 2.51635 4.79795 3.32195 4.79795Z" fill="#002060"/>
<path d="M6.15717 5.90337V13.996H8.66983V9.99404C8.66983 8.93804 8.8685 7.91537 10.1778 7.91537C11.4692 7.91537 11.4852 9.1227 11.4852 10.0607V13.9967H13.9992V9.5587C13.9992 7.3787 13.5298 5.70337 10.9818 5.70337C9.7585 5.70337 8.9385 6.3747 8.60317 7.01004H8.56917V5.90337H6.15717V5.90337ZM2.0625 5.90337H4.57917V13.996H2.0625V5.90337Z" fill="#002060"/>
</svg>
