<svg width="16" height="16" viewBox="0 0 16 16" fill="none" xmlns="http://www.w3.org/2000/svg">
<path d="M14.3996 5.89835V11.6C14.3996 12.1304 14.1889 12.6391 13.8138 13.0142C13.4387 13.3892 12.93 13.6 12.3996 13.6H3.59961C3.06918 13.6 2.56047 13.3892 2.1854 13.0142C1.81032 12.6391 1.59961 12.1304 1.59961 11.6V5.89835L7.79641 9.54475C7.85797 9.58106 7.92814 9.60021 7.99961 9.60021C8.07108 9.60021 8.14125 9.58106 8.20281 9.54475L14.3996 5.89835ZM12.3996 3.19995C12.8917 3.19987 13.3666 3.38124 13.7334 3.70934C14.1002 4.03745 14.3331 4.48926 14.3876 4.97835L7.99961 8.73595L1.61161 4.97835C1.66614 4.48926 1.89907 4.03745 2.26585 3.70934C2.63262 3.38124 3.10749 3.19987 3.59961 3.19995H12.3996Z" fill="#002060"/>
</svg>
