<svg width="97" height="29" viewBox="0 0 97 29" fill="none" xmlns="http://www.w3.org/2000/svg">
<path d="M3.53235 3.52115L3.50608 3.4947L3.26013 3.24947L3.22874 3.21873L0 0V16.9273L12.11 29V22.9844L4.30596 15.2035V10.3104L5.20365 11.2048L5.34742 11.3492L5.52331 11.5244L5.65833 11.6602V11.6595L12.11 18.0905V12.0727L3.53235 3.52115Z" fill="white"/>
<path d="M22.7719 3.21873L22.7405 3.24947L22.4953 3.4947L22.469 3.52115L13.8906 12.0727V18.0905L20.3415 11.6595L20.3423 11.6602L20.4955 11.5065L20.6532 11.3492L20.8064 11.1948L21.6946 10.3104V15.2035L13.8906 22.9844V29L26.0006 16.9273V0L22.7719 3.21873Z" fill="white"/>
<path d="M38.0885 19.168C37.4245 19.168 36.8085 19.064 36.2405 18.856C35.6805 18.64 35.1925 18.336 34.7765 17.944C34.3685 17.552 34.0485 17.092 33.8165 16.564C33.5845 16.028 33.4685 15.44 33.4685 14.8C33.4685 14.16 33.5845 13.576 33.8165 13.048C34.0485 12.512 34.3685 12.048 34.7765 11.656C35.1925 11.264 35.6805 10.964 36.2405 10.756C36.8085 10.54 37.4245 10.432 38.0885 10.432C38.8645 10.432 39.5565 10.568 40.1645 10.84C40.7805 11.112 41.2925 11.504 41.7005 12.016L40.1885 13.384C39.9165 13.064 39.6165 12.82 39.2885 12.652C38.9685 12.484 38.6085 12.4 38.2085 12.4C37.8645 12.4 37.5485 12.456 37.2605 12.568C36.9725 12.68 36.7245 12.844 36.5165 13.06C36.3165 13.268 36.1565 13.52 36.0365 13.816C35.9245 14.112 35.8685 14.44 35.8685 14.8C35.8685 15.16 35.9245 15.488 36.0365 15.784C36.1565 16.08 36.3165 16.336 36.5165 16.552C36.7245 16.76 36.9725 16.92 37.2605 17.032C37.5485 17.144 37.8645 17.2 38.2085 17.2C38.6085 17.2 38.9685 17.116 39.2885 16.948C39.6165 16.78 39.9165 16.536 40.1885 16.216L41.7005 17.584C41.2925 18.088 40.7805 18.48 40.1645 18.76C39.5565 19.032 38.8645 19.168 38.0885 19.168ZM46.8201 19.168C46.1481 19.168 45.5281 19.06 44.9601 18.844C44.3921 18.628 43.8961 18.324 43.4721 17.932C43.0561 17.532 42.7321 17.068 42.5001 16.54C42.2681 16.012 42.1521 15.432 42.1521 14.8C42.1521 14.168 42.2681 13.588 42.5001 13.06C42.7321 12.532 43.0561 12.072 43.4721 11.68C43.8961 11.28 44.3921 10.972 44.9601 10.756C45.5281 10.54 46.1481 10.432 46.8201 10.432C47.5001 10.432 48.1201 10.54 48.6801 10.756C49.2481 10.972 49.7401 11.28 50.1561 11.68C50.5721 12.072 50.8961 12.532 51.1281 13.06C51.3681 13.588 51.4881 14.168 51.4881 14.8C51.4881 15.432 51.3681 16.016 51.1281 16.552C50.8961 17.08 50.5721 17.54 50.1561 17.932C49.7401 18.324 49.2481 18.628 48.6801 18.844C48.1201 19.06 47.5001 19.168 46.8201 19.168ZM46.8201 17.2C47.1401 17.2 47.4361 17.144 47.7081 17.032C47.9881 16.92 48.2281 16.76 48.4281 16.552C48.6361 16.336 48.7961 16.08 48.9081 15.784C49.0281 15.488 49.0881 15.16 49.0881 14.8C49.0881 14.432 49.0281 14.104 48.9081 13.816C48.7961 13.52 48.6361 13.268 48.4281 13.06C48.2281 12.844 47.9881 12.68 47.7081 12.568C47.4361 12.456 47.1401 12.4 46.8201 12.4C46.5001 12.4 46.2001 12.456 45.9201 12.568C45.6481 12.68 45.4081 12.844 45.2001 13.06C45.0001 13.268 44.8401 13.52 44.7201 13.816C44.6081 14.104 44.5521 14.432 44.5521 14.8C44.5521 15.16 44.6081 15.488 44.7201 15.784C44.8401 16.08 45.0001 16.336 45.2001 16.552C45.4081 16.76 45.6481 16.92 45.9201 17.032C46.2001 17.144 46.5001 17.2 46.8201 17.2ZM52.7326 19V10.6H54.6886L59.3206 16.192H58.3966V10.6H60.7246V19H58.7686L54.1366 13.408H55.0606V19H52.7326ZM62.4005 19V10.6H64.3565L68.9885 16.192H68.0645V10.6H70.3925V19H68.4365L63.8045 13.408H64.7285V19H62.4005ZM74.2525 13.852H78.1525V15.628H74.2525V13.852ZM74.4205 17.164H78.8125V19H72.0685V10.6H78.6565V12.436H74.4205V17.164ZM80.131 19V10.6H82.507V17.116H86.515V19H80.131ZM87.4552 19V10.6H89.8312V17.116H93.8392V19H87.4552Z" fill="white"/>
</svg>
