<svg width="34" height="34" viewBox="0 0 34 34" fill="none" xmlns="http://www.w3.org/2000/svg">
<path d="M13.991 10.6249C13.8928 10.7253 13.8379 10.8602 13.8379 11.0006C13.8379 11.141 13.8928 11.2759 13.991 11.3764L19.4731 17.0002L13.991 22.623C13.8928 22.7234 13.8379 22.8583 13.8379 22.9987C13.8379 23.1392 13.8928 23.274 13.991 23.3745C14.0386 23.4235 14.0957 23.4624 14.1587 23.489C14.2217 23.5156 14.2893 23.5293 14.3577 23.5293C14.4261 23.5293 14.4937 23.5156 14.5567 23.489C14.6197 23.4624 14.6768 23.4235 14.7245 23.3745L20.5542 17.3929C20.6566 17.2878 20.7139 17.1469 20.7139 17.0002C20.7139 16.8535 20.6566 16.7126 20.5542 16.6076L14.7245 10.626C14.6768 10.577 14.6197 10.5381 14.5567 10.5115C14.4937 10.4849 14.4261 10.4712 14.3577 10.4712C14.2893 10.4712 14.2217 10.4849 14.1587 10.5115C14.0957 10.5381 14.0386 10.577 13.991 10.626V10.6249Z" fill="#FFCE1B"/>
<circle cx="17" cy="17" r="16.75" stroke="#FFCE1B" stroke-width="0.5"/>
</svg>
