<svg width="24" height="24" viewBox="0 0 24 24" fill="none" xmlns="http://www.w3.org/2000/svg">
<circle cx="12" cy="12" r="12" fill="white"/>
<path d="M7.32195 8.79819C8.12755 8.79819 8.78061 8.14513 8.78061 7.33953C8.78061 6.53393 8.12755 5.88086 7.32195 5.88086C6.51635 5.88086 5.86328 6.53393 5.86328 7.33953C5.86328 8.14513 6.51635 8.79819 7.32195 8.79819Z" fill="#002060"/>
<path d="M10.1572 9.90312V17.9958H12.6698V13.9938C12.6698 12.9378 12.8685 11.9151 14.1778 11.9151C15.4692 11.9151 15.4852 13.1225 15.4852 14.0605V17.9965H17.9992V13.5585C17.9992 11.3785 17.5298 9.70312 14.9818 9.70312C13.7585 9.70312 12.9385 10.3745 12.6032 11.0098H12.5692V9.90312H10.1572ZM6.0625 9.90312H8.57917V17.9958H6.0625V9.90312Z" fill="#002060"/>
</svg>
