<svg width="32" height="32" viewBox="0 0 32 32" fill="none" xmlns="http://www.w3.org/2000/svg">
<path fill-rule="evenodd" clip-rule="evenodd" d="M30 15.9998C30 16.265 29.8946 16.5194 29.7071 16.7069C29.5196 16.8944 29.2652 16.9998 29 16.9998H5.414L11.708 23.2918C11.8958 23.4796 12.0013 23.7342 12.0013 23.9998C12.0013 24.2653 11.8958 24.52 11.708 24.7078C11.5202 24.8956 11.2656 25.0011 11 25.0011C10.7344 25.0011 10.4798 24.8956 10.292 24.7078L2.292 16.7078C2.19887 16.6149 2.12499 16.5046 2.07458 16.3831C2.02416 16.2616 1.99821 16.1313 1.99821 15.9998C1.99821 15.8683 2.02416 15.738 2.07458 15.6165C2.12499 15.495 2.19887 15.3847 2.292 15.2918L10.292 7.2918C10.4798 7.10402 10.7344 6.99854 11 6.99854C11.2656 6.99854 11.5202 7.10402 11.708 7.2918C11.8958 7.47957 12.0013 7.73425 12.0013 7.9998C12.0013 8.26535 11.8958 8.52003 11.708 8.7078L5.414 14.9998L29 14.9998C29.2652 14.9998 29.5196 15.1052 29.7071 15.2927C29.8946 15.4802 30 15.7346 30 15.9998V15.9998Z" fill="#002060"/>
</svg>
