<svg width="32" height="32" viewBox="0 0 32 32" fill="none" xmlns="http://www.w3.org/2000/svg">
<path fill-rule="evenodd" clip-rule="evenodd" d="M2 16.0002C2 15.735 2.10536 15.4806 2.29289 15.2931C2.48043 15.1056 2.73478 15.0002 3 15.0002L26.586 15.0002L20.292 8.7082C20.1042 8.52043 19.9987 8.26575 19.9987 8.0002C19.9987 7.73465 20.1042 7.47998 20.292 7.2922C20.4798 7.10443 20.7344 6.99894 21 6.99894C21.2656 6.99894 21.5202 7.10443 21.708 7.2922L29.708 15.2922C29.8011 15.3851 29.875 15.4954 29.9254 15.6169C29.9758 15.7384 30.0018 15.8687 30.0018 16.0002C30.0018 16.1317 29.9758 16.262 29.9254 16.3835C29.875 16.505 29.8011 16.6153 29.708 16.7082L21.708 24.7082C21.5202 24.896 21.2656 25.0015 21 25.0015C20.7344 25.0015 20.4798 24.896 20.292 24.7082C20.1042 24.5204 19.9987 24.2658 19.9987 24.0002C19.9987 23.7347 20.1042 23.48 20.292 23.2922L26.586 17.0002H3C2.73478 17.0002 2.48043 16.8948 2.29289 16.7073C2.10536 16.5198 2 16.2654 2 16.0002V16.0002Z" fill="#002060"/>
</svg>
