<svg width="24" height="24" viewBox="0 0 24 24" fill="none" xmlns="http://www.w3.org/2000/svg">
<circle cx="12" cy="12" r="12" fill="white"/>
<path d="M9.58994 5.65308C9.94001 5.54753 10.3157 5.56506 10.6544 5.70276C10.9931 5.84046 11.2744 6.09001 11.4515 6.40988L11.5107 6.52908L12.0403 7.70587C12.2011 8.06306 12.2532 8.45962 12.1904 8.84622C12.1275 9.23283 11.9524 9.59242 11.6867 9.88027L11.5803 9.98587L10.7459 10.7643C10.5955 10.9067 10.7083 11.4579 11.2523 12.4003C11.7419 13.2483 12.1403 13.6443 12.3363 13.6659H12.3707L12.4131 13.6579L14.0531 13.1563C14.2736 13.0887 14.5088 13.086 14.7307 13.1486C14.9525 13.2111 15.1517 13.3363 15.3043 13.5091L15.3771 13.6011L16.4627 15.1051C16.6755 15.3999 16.7815 15.7583 16.7633 16.1214C16.7452 16.4845 16.6039 16.8306 16.3627 17.1027L16.2651 17.2035L15.8315 17.6147C15.4422 17.9834 14.9551 18.2326 14.4283 18.3326C13.9014 18.4325 13.3569 18.3791 12.8595 18.1787C11.3115 17.5547 9.90514 16.1291 8.62754 13.9163C7.34754 11.6979 6.81554 9.76427 7.05314 8.10827C7.12504 7.60769 7.33117 7.13592 7.64965 6.74307C7.96813 6.35022 8.38705 6.05096 8.86194 5.87708L9.01634 5.82588L9.58994 5.65308Z" fill="#002060"/>
</svg>
