<svg width="24" height="24" viewBox="0 0 24 24" fill="none" xmlns="http://www.w3.org/2000/svg">
<circle cx="12" cy="12" r="12" fill="white"/>
<path d="M19.7623 7.29122C19.2057 7.53789 18.6077 7.70456 17.979 7.77989C18.6277 7.39175 19.113 6.78087 19.3443 6.06122C18.7349 6.42321 18.0679 6.67802 17.3723 6.81456C16.9046 6.31513 16.285 5.98411 15.6099 5.87287C14.9347 5.76164 14.2417 5.87642 13.6385 6.19939C13.0353 6.52236 12.5555 7.03546 12.2738 7.65902C11.992 8.28259 11.924 8.98172 12.0803 9.64789C10.8455 9.58589 9.63742 9.26492 8.53462 8.70583C7.43181 8.14673 6.45889 7.362 5.679 6.40256C5.41233 6.86256 5.259 7.39589 5.259 7.96389C5.2587 8.47522 5.38462 8.97872 5.62559 9.42971C5.86655 9.8807 6.21511 10.2652 6.64033 10.5492C6.14718 10.5335 5.66492 10.4003 5.23367 10.1606V10.2006C5.23362 10.9177 5.48169 11.6128 5.93579 12.1679C6.38989 12.723 7.02205 13.1038 7.725 13.2459C7.26752 13.3697 6.78789 13.3879 6.32233 13.2992C6.52066 13.9163 6.907 14.4559 7.42724 14.8425C7.94749 15.2291 8.57561 15.4433 9.22367 15.4552C8.12356 16.3188 6.76493 16.7873 5.36633 16.7852C5.11859 16.7853 4.87105 16.7708 4.625 16.7419C6.04465 17.6547 7.69723 18.1391 9.385 18.1372C15.0983 18.1372 18.2217 13.4052 18.2217 9.30122C18.2217 9.16789 18.2183 9.03322 18.2123 8.89989C18.8199 8.46054 19.3443 7.91649 19.761 7.29322L19.7623 7.29122Z" fill="#002060"/>
</svg>
