<svg width="24" height="24" viewBox="0 0 24 24" fill="none" xmlns="http://www.w3.org/2000/svg">
<circle cx="12" cy="12" r="12" fill="white"/>
<path fill-rule="evenodd" clip-rule="evenodd" d="M8.97602 4.71075C9.75802 4.67475 10.0073 4.66675 11.9993 4.66675C13.9913 4.66675 14.2407 4.67541 15.022 4.71075C15.8033 4.74608 16.3367 4.87075 16.8033 5.05141C17.292 5.23608 17.7353 5.52475 18.102 5.89808C18.4753 6.26408 18.7633 6.70675 18.9473 7.19608C19.1287 7.66275 19.2527 8.19608 19.2887 8.97608C19.3247 9.75941 19.3327 10.0087 19.3327 12.0001C19.3327 13.9921 19.324 14.2414 19.2887 15.0234C19.2533 15.8034 19.1287 16.3367 18.9473 16.8034C18.7633 17.2928 18.4749 17.7362 18.102 18.1027C17.7353 18.4761 17.292 18.7641 16.8033 18.9481C16.3367 19.1294 15.8033 19.2534 15.0233 19.2894C14.2407 19.3254 13.9913 19.3334 11.9993 19.3334C10.0073 19.3334 9.75802 19.3247 8.97602 19.2894C8.19602 19.2541 7.66268 19.1294 7.19602 18.9481C6.70663 18.7641 6.26323 18.4756 5.89668 18.1027C5.5236 17.7365 5.23489 17.2933 5.05068 16.8041C4.87002 16.3374 4.74602 15.8041 4.71002 15.0241C4.67402 14.2407 4.66602 13.9914 4.66602 12.0001C4.66602 10.0081 4.67468 9.75875 4.71002 8.97741C4.74535 8.19608 4.87002 7.66275 5.05068 7.19608C5.23516 6.7068 5.52409 6.26362 5.89735 5.89741C6.26338 5.52442 6.70633 5.23571 7.19535 5.05141C7.66202 4.87075 8.19535 4.74675 8.97535 4.71075H8.97602ZM14.9627 6.03075C14.1893 5.99541 13.9573 5.98808 11.9993 5.98808C10.0413 5.98808 9.80935 5.99541 9.03602 6.03075C8.32068 6.06341 7.93268 6.18275 7.67402 6.28341C7.33202 6.41675 7.08735 6.57475 6.83068 6.83141C6.58738 7.06812 6.40014 7.35627 6.28268 7.67475C6.18202 7.93341 6.06268 8.32141 6.03002 9.03675C5.99468 9.81008 5.98735 10.0421 5.98735 12.0001C5.98735 13.9581 5.99468 14.1901 6.03002 14.9634C6.06268 15.6787 6.18202 16.0667 6.28268 16.3254C6.40002 16.6434 6.58735 16.9321 6.83068 17.1687C7.06735 17.4121 7.35602 17.5994 7.67402 17.7167C7.93268 17.8174 8.32068 17.9367 9.03602 17.9694C9.80935 18.0047 10.0407 18.0121 11.9993 18.0121C13.958 18.0121 14.1893 18.0047 14.9627 17.9694C15.678 17.9367 16.066 17.8174 16.3247 17.7167C16.6667 17.5834 16.9113 17.4254 17.168 17.1687C17.4113 16.9321 17.5987 16.6434 17.716 16.3254C17.8167 16.0667 17.936 15.6787 17.9687 14.9634C18.004 14.1901 18.0113 13.9581 18.0113 12.0001C18.0113 10.0421 18.004 9.81008 17.9687 9.03675C17.936 8.32141 17.8167 7.93341 17.716 7.67475C17.5827 7.33275 17.4247 7.08808 17.168 6.83141C16.9313 6.58813 16.6432 6.40089 16.3247 6.28341C16.066 6.18275 15.678 6.06341 14.9627 6.03075ZM11.0627 14.2607C11.5858 14.4785 12.1683 14.5079 12.7106 14.3439C13.253 14.1799 13.7216 13.8327 14.0364 13.3616C14.3512 12.8905 14.4927 12.3247 14.4367 11.7608C14.3807 11.197 14.1307 10.6701 13.7293 10.2701C13.4735 10.0144 13.1642 9.81862 12.8236 9.69685C12.483 9.57507 12.1196 9.53032 11.7597 9.56582C11.3997 9.60133 11.0521 9.7162 10.7419 9.90217C10.4317 10.0881 10.1665 10.3406 9.96555 10.6413C9.76459 10.9421 9.63281 11.2836 9.57969 11.6414C9.52658 11.9992 9.55345 12.3643 9.65838 12.7104C9.7633 13.0566 9.94367 13.3752 10.1865 13.6432C10.4293 13.9113 10.7286 14.1222 11.0627 14.2607ZM9.33402 9.33475C9.68403 8.98473 10.0996 8.70708 10.5569 8.51766C11.0142 8.32823 11.5044 8.23073 11.9993 8.23073C12.4943 8.23073 12.9845 8.32823 13.4418 8.51765C13.8991 8.70708 14.3147 8.98473 14.6647 9.33475C15.0147 9.68476 15.2923 10.1003 15.4818 10.5576C15.6712 11.0149 15.7687 11.5051 15.7687 12.0001C15.7687 12.4951 15.6712 12.9852 15.4818 13.4425C15.2923 13.8999 15.0147 14.3154 14.6647 14.6654C13.9578 15.3723 12.999 15.7694 11.9993 15.7694C10.9997 15.7694 10.0409 15.3723 9.33402 14.6654C8.62713 13.9585 8.23 12.9998 8.23 12.0001C8.23 11.0004 8.62713 10.0416 9.33402 9.33475ZM16.6047 8.79208C16.6914 8.71026 16.7609 8.61187 16.8089 8.50273C16.8569 8.39359 16.8826 8.27593 16.8843 8.1567C16.886 8.03748 16.8638 7.91911 16.819 7.80862C16.7742 7.69813 16.7076 7.59775 16.6233 7.51344C16.539 7.42913 16.4386 7.36259 16.3281 7.31776C16.2177 7.27293 16.0993 7.25073 15.9801 7.25247C15.8608 7.25421 15.7432 7.27985 15.634 7.32788C15.5249 7.37591 15.4265 7.44534 15.3447 7.53208C15.1856 7.70077 15.0984 7.92483 15.1018 8.1567C15.1052 8.38857 15.1988 8.61 15.3628 8.77398C15.5268 8.93795 15.7482 9.03157 15.9801 9.03495C16.2119 9.03833 16.436 8.95121 16.6047 8.79208Z" fill="#002060"/>
</svg>
