<svg width="24" height="24" viewBox="0 0 24 24" fill="none" xmlns="http://www.w3.org/2000/svg">
<circle cx="12" cy="12" r="12" fill="white"/>
<path d="M19.7623 7.29171C19.2057 7.53838 18.6077 7.70504 17.979 7.78038C18.6277 7.39224 19.113 6.78135 19.3443 6.06171C18.7349 6.4237 18.0679 6.67851 17.3723 6.81504C16.9046 6.31562 16.285 5.98459 15.6099 5.87336C14.9347 5.76212 14.2417 5.8769 13.6385 6.19988C13.0353 6.52285 12.5555 7.03595 12.2738 7.65951C11.992 8.28307 11.924 8.98221 12.0803 9.64838C10.8455 9.58637 9.63742 9.26541 8.53462 8.70631C7.43181 8.14722 6.45889 7.36248 5.679 6.40304C5.41233 6.86304 5.259 7.39638 5.259 7.96438C5.2587 8.47571 5.38462 8.9792 5.62559 9.4302C5.86655 9.88119 6.21511 10.2657 6.64033 10.5497C6.14718 10.534 5.66492 10.4008 5.23367 10.161V10.201C5.23362 10.9182 5.48169 11.6133 5.93579 12.1684C6.38989 12.7235 7.02205 13.1043 7.725 13.2464C7.26752 13.3702 6.78789 13.3884 6.32233 13.2997C6.52066 13.9168 6.907 14.4564 7.42724 14.843C7.94749 15.2296 8.57561 15.4438 9.22367 15.4557C8.12356 16.3193 6.76493 16.7878 5.36633 16.7857C5.11859 16.7858 4.87105 16.7713 4.625 16.7424C6.04465 17.6552 7.69723 18.1396 9.385 18.1377C15.0983 18.1377 18.2217 13.4057 18.2217 9.30171C18.2217 9.16838 18.2183 9.03371 18.2123 8.90038C18.8199 8.46103 19.3443 7.91697 19.761 7.29371L19.7623 7.29171Z" fill="#002060"/>
</svg>
