<svg width="24" height="24" viewBox="0 0 24 24" fill="none" xmlns="http://www.w3.org/2000/svg">
<circle cx="12" cy="12" r="12" fill="white"/>
<path d="M9.58994 5.65283C9.94001 5.54728 10.3157 5.56482 10.6544 5.70252C10.9931 5.84021 11.2744 6.08977 11.4515 6.40963L11.5107 6.52883L12.0403 7.70563C12.2011 8.06282 12.2532 8.45937 12.1904 8.84598C12.1275 9.23258 11.9524 9.59218 11.6867 9.88003L11.5803 9.98563L10.7459 10.764C10.5955 10.9064 10.7083 11.4576 11.2523 12.4C11.7419 13.248 12.1403 13.644 12.3363 13.6656H12.3707L12.4131 13.6576L14.0531 13.156C14.2736 13.0884 14.5088 13.0858 14.7307 13.1483C14.9525 13.2109 15.1517 13.336 15.3043 13.5088L15.3771 13.6008L16.4627 15.1048C16.6755 15.3996 16.7815 15.7581 16.7633 16.1212C16.7452 16.4843 16.6039 16.8304 16.3627 17.1024L16.2651 17.2032L15.8315 17.6144C15.4422 17.9832 14.9551 18.2323 14.4283 18.3323C13.9014 18.4323 13.3569 18.3789 12.8595 18.1784C11.3115 17.5544 9.90514 16.1288 8.62754 13.916C7.34754 11.6976 6.81554 9.76403 7.05314 8.10803C7.12504 7.60744 7.33117 7.13568 7.64965 6.74283C7.96813 6.34998 8.38705 6.05072 8.86194 5.87683L9.01634 5.82563L9.58994 5.65283V5.65283Z" fill="#002060"/>
</svg>
