<svg width="24" height="24" viewBox="0 0 24 24" fill="none" xmlns="http://www.w3.org/2000/svg">
<circle cx="12" cy="12" r="12" fill="white"/>
<path d="M7.32195 8.79795C8.12755 8.79795 8.78061 8.14488 8.78061 7.33928C8.78061 6.53368 8.12755 5.88062 7.32195 5.88062C6.51635 5.88062 5.86328 6.53368 5.86328 7.33928C5.86328 8.14488 6.51635 8.79795 7.32195 8.79795Z" fill="#002060"/>
<path d="M10.1572 9.90337V17.996H12.6698V13.994C12.6698 12.938 12.8685 11.9154 14.1778 11.9154C15.4692 11.9154 15.4852 13.1227 15.4852 14.0607V17.9967H17.9992V13.5587C17.9992 11.3787 17.5298 9.70337 14.9818 9.70337C13.7585 9.70337 12.9385 10.3747 12.6032 11.01H12.5692V9.90337H10.1572ZM6.0625 9.90337H8.57917V17.996H6.0625V9.90337Z" fill="#002060"/>
</svg>
