<svg width="11" height="14" viewBox="0 0 11 14" fill="none" xmlns="http://www.w3.org/2000/svg">
<path d="M3.58945 0.654052C3.93952 0.548505 4.31518 0.56604 4.65389 0.703737C4.9926 0.841434 5.27393 1.09099 5.45105 1.41085L5.51025 1.53005L6.03985 2.70685C6.20058 3.06404 6.25275 3.4606 6.18988 3.8472C6.12701 4.2338 5.95188 4.5934 5.68625 4.88125L5.57985 4.98685L4.74545 5.76525C4.59505 5.90765 4.70785 6.45885 5.25185 7.40125C5.74145 8.24925 6.13985 8.64525 6.33585 8.66685H6.37025L6.41265 8.65885L8.05265 8.15725C8.27306 8.08965 8.50828 8.08698 8.73017 8.14955C8.95206 8.21211 9.15123 8.33727 9.30385 8.51005L9.37665 8.60205L10.4623 10.1061C10.675 10.4008 10.781 10.7593 10.7629 11.1224C10.7447 11.4855 10.6034 11.8316 10.3623 12.1037L10.2647 12.2045L9.83105 12.6157C9.44169 12.9844 8.95463 13.2336 8.42777 13.3335C7.90092 13.4335 7.35644 13.3801 6.85905 13.1797C5.31105 12.5556 3.90465 11.1301 2.62705 8.91725C1.34705 6.69885 0.815054 4.76525 1.05265 3.10925C1.12455 2.60866 1.33069 2.1369 1.64916 1.74405C1.96764 1.3512 2.38657 1.05194 2.86145 0.878052L3.01585 0.826852L3.58945 0.654052Z" fill="#002060"/>
</svg>
