<svg width="99" height="113" viewBox="0 0 99 113" fill="none" xmlns="http://www.w3.org/2000/svg">
<rect width="99" height="113" fill="#001F60"/>
<path d="M31.9889 18.0355L31.9667 18.0127L31.7586 17.8013L31.732 17.7748L29 15V29.5925L39.2469 40V34.8141L32.6435 28.1065V23.8882L33.4031 24.6593L33.5247 24.7838L33.6736 24.9348L33.7878 25.0519V25.0513L39.2469 30.5953V25.4075L31.9889 18.0355Z" fill="white"/>
<path d="M48.2688 17.7748L48.2422 17.8013L48.0347 18.0127L48.0125 18.0355L40.7539 25.4075V30.5953L46.2124 25.0513L46.213 25.0519L46.3427 24.9194L46.4761 24.7838L46.6058 24.6507L47.3573 23.8882V28.1065L40.7539 34.8141V40L51.0008 29.5925V15L48.2688 17.7748Z" fill="white"/>
<path d="M19.3238 56.14C18.7705 56.14 18.2571 56.0533 17.7838 55.88C17.3171 55.7 16.9105 55.4467 16.5638 55.12C16.2238 54.7933 15.9571 54.41 15.7638 53.97C15.5705 53.5233 15.4738 53.0333 15.4738 52.5C15.4738 51.9667 15.5705 51.48 15.7638 51.04C15.9571 50.5933 16.2238 50.2067 16.5638 49.88C16.9105 49.5533 17.3171 49.3033 17.7838 49.13C18.2571 48.95 18.7705 48.86 19.3238 48.86C19.9705 48.86 20.5471 48.9733 21.0538 49.2C21.5671 49.4267 21.9938 49.7533 22.3338 50.18L21.0738 51.32C20.8471 51.0533 20.5971 50.85 20.3238 50.71C20.0571 50.57 19.7571 50.5 19.4238 50.5C19.1371 50.5 18.8738 50.5467 18.6338 50.64C18.3938 50.7333 18.1871 50.87 18.0138 51.05C17.8471 51.2233 17.7138 51.4333 17.6138 51.68C17.5205 51.9267 17.4738 52.2 17.4738 52.5C17.4738 52.8 17.5205 53.0733 17.6138 53.32C17.7138 53.5667 17.8471 53.78 18.0138 53.96C18.1871 54.1333 18.3938 54.2667 18.6338 54.36C18.8738 54.4533 19.1371 54.5 19.4238 54.5C19.7571 54.5 20.0571 54.43 20.3238 54.29C20.5971 54.15 20.8471 53.9467 21.0738 53.68L22.3338 54.82C21.9938 55.24 21.5671 55.5667 21.0538 55.8C20.5471 56.0267 19.9705 56.14 19.3238 56.14ZM26.6001 56.14C26.0401 56.14 25.5235 56.05 25.0501 55.87C24.5768 55.69 24.1635 55.4367 23.8101 55.11C23.4635 54.7767 23.1935 54.39 23.0001 53.95C22.8068 53.51 22.7101 53.0267 22.7101 52.5C22.7101 51.9733 22.8068 51.49 23.0001 51.05C23.1935 50.61 23.4635 50.2267 23.8101 49.9C24.1635 49.5667 24.5768 49.31 25.0501 49.13C25.5235 48.95 26.0401 48.86 26.6001 48.86C27.1668 48.86 27.6835 48.95 28.1501 49.13C28.6235 49.31 29.0335 49.5667 29.3801 49.9C29.7268 50.2267 29.9968 50.61 30.1901 51.05C30.3901 51.49 30.4901 51.9733 30.4901 52.5C30.4901 53.0267 30.3901 53.5133 30.1901 53.96C29.9968 54.4 29.7268 54.7833 29.3801 55.11C29.0335 55.4367 28.6235 55.69 28.1501 55.87C27.6835 56.05 27.1668 56.14 26.6001 56.14ZM26.6001 54.5C26.8668 54.5 27.1135 54.4533 27.3401 54.36C27.5735 54.2667 27.7735 54.1333 27.9401 53.96C28.1135 53.78 28.2468 53.5667 28.3401 53.32C28.4401 53.0733 28.4901 52.8 28.4901 52.5C28.4901 52.1933 28.4401 51.92 28.3401 51.68C28.2468 51.4333 28.1135 51.2233 27.9401 51.05C27.7735 50.87 27.5735 50.7333 27.3401 50.64C27.1135 50.5467 26.8668 50.5 26.6001 50.5C26.3335 50.5 26.0835 50.5467 25.8501 50.64C25.6235 50.7333 25.4235 50.87 25.2501 51.05C25.0835 51.2233 24.9501 51.4333 24.8501 51.68C24.7568 51.92 24.7101 52.1933 24.7101 52.5C24.7101 52.8 24.7568 53.0733 24.8501 53.32C24.9501 53.5667 25.0835 53.78 25.2501 53.96C25.4235 54.1333 25.6235 54.2667 25.8501 54.36C26.0835 54.4533 26.3335 54.5 26.6001 54.5ZM31.5271 56V49H33.1571L37.0171 53.66H36.2471V49H38.1871V56H36.5571L32.6971 51.34H33.4671V56H31.5271ZM39.5838 56V49H41.2138L45.0738 53.66H44.3038V49H46.2438V56H44.6138L40.7538 51.34H41.5238V56H39.5838ZM49.4604 51.71H52.7104V53.19H49.4604V51.71ZM49.6004 54.47H53.2604V56H47.6404V49H53.1304V50.53H49.6004V54.47ZM54.3592 56V49H56.3392V54.43H59.6792V56H54.3592ZM60.4627 56V49H62.4427V54.43H65.7827V56H60.4627Z" fill="white"/>
<path d="M15.912 76V70.4H16.504V76H15.912ZM23.4541 71.76C23.7954 71.76 24.0914 71.8267 24.3421 71.96C24.5981 72.088 24.7954 72.2853 24.9341 72.552C25.0781 72.8187 25.1501 73.1547 25.1501 73.56V76H24.5821V73.616C24.5821 73.1733 24.4754 72.84 24.2621 72.616C24.0541 72.3867 23.7581 72.272 23.3741 72.272C23.0861 72.272 22.8354 72.3333 22.6221 72.456C22.4141 72.5733 22.2514 72.7467 22.1341 72.976C22.0221 73.2 21.9661 73.472 21.9661 73.792V76H21.3981V73.616C21.3981 73.1733 21.2914 72.84 21.0781 72.616C20.8647 72.3867 20.5661 72.272 20.1821 72.272C19.8994 72.272 19.6514 72.3333 19.4381 72.456C19.2247 72.5733 19.0594 72.7467 18.9421 72.976C18.8301 73.2 18.7741 73.472 18.7741 73.792V76H18.2061V71.8H18.7501V72.936L18.6621 72.736C18.7901 72.432 18.9954 72.1947 19.2781 72.024C19.5661 71.848 19.9047 71.76 20.2941 71.76C20.7047 71.76 21.0541 71.864 21.3421 72.072C21.6301 72.2747 21.8167 72.5813 21.9021 72.992L21.6781 72.904C21.8007 72.5627 22.0167 72.288 22.3261 72.08C22.6407 71.8667 23.0167 71.76 23.4541 71.76ZM31.9384 71.76C32.2798 71.76 32.5758 71.8267 32.8264 71.96C33.0824 72.088 33.2798 72.2853 33.4184 72.552C33.5624 72.8187 33.6344 73.1547 33.6344 73.56V76H33.0664V73.616C33.0664 73.1733 32.9598 72.84 32.7464 72.616C32.5384 72.3867 32.2424 72.272 31.8584 72.272C31.5704 72.272 31.3198 72.3333 31.1064 72.456C30.8984 72.5733 30.7358 72.7467 30.6184 72.976C30.5064 73.2 30.4504 73.472 30.4504 73.792V76H29.8824V73.616C29.8824 73.1733 29.7758 72.84 29.5624 72.616C29.3491 72.3867 29.0504 72.272 28.6664 72.272C28.3838 72.272 28.1358 72.3333 27.9224 72.456C27.7091 72.5733 27.5438 72.7467 27.4264 72.976C27.3144 73.2 27.2584 73.472 27.2584 73.792V76H26.6904V71.8H27.2344V72.936L27.1464 72.736C27.2744 72.432 27.4798 72.1947 27.7624 72.024C28.0504 71.848 28.3891 71.76 28.7784 71.76C29.1891 71.76 29.5384 71.864 29.8264 72.072C30.1144 72.2747 30.3011 72.5813 30.3864 72.992L30.1624 72.904C30.2851 72.5627 30.5011 72.288 30.8104 72.08C31.1251 71.8667 31.5011 71.76 31.9384 71.76ZM35.1748 76V71.8H35.7428V76H35.1748ZM35.4628 70.872C35.3455 70.872 35.2468 70.832 35.1668 70.752C35.0868 70.672 35.0468 70.576 35.0468 70.464C35.0468 70.352 35.0868 70.2587 35.1668 70.184C35.2468 70.104 35.3455 70.064 35.4628 70.064C35.5801 70.064 35.6788 70.1013 35.7588 70.176C35.8388 70.2507 35.8788 70.344 35.8788 70.456C35.8788 70.5733 35.8388 70.672 35.7588 70.752C35.6841 70.832 35.5855 70.872 35.4628 70.872ZM39.1153 77.592C38.7313 77.592 38.3633 77.536 38.0113 77.424C37.6593 77.312 37.3739 77.152 37.1553 76.944L37.4433 76.512C37.6406 76.688 37.8833 76.8267 38.1713 76.928C38.4646 77.0347 38.7739 77.088 39.0993 77.088C39.6326 77.088 40.0246 76.9627 40.2753 76.712C40.5259 76.4667 40.6513 76.0827 40.6513 75.56V74.512L40.7313 73.792L40.6753 73.072V71.8H41.2193V75.488C41.2193 76.2133 41.0406 76.744 40.6833 77.08C40.3313 77.4213 39.8086 77.592 39.1153 77.592ZM39.0113 75.84C38.6113 75.84 38.2513 75.7547 37.9313 75.584C37.6113 75.408 37.3579 75.1653 37.1713 74.856C36.9899 74.5467 36.8993 74.192 36.8993 73.792C36.8993 73.392 36.9899 73.04 37.1713 72.736C37.3579 72.4267 37.6113 72.1867 37.9313 72.016C38.2513 71.8453 38.6113 71.76 39.0113 71.76C39.3846 71.76 39.7206 71.8373 40.0193 71.992C40.3179 72.1467 40.5553 72.376 40.7313 72.68C40.9073 72.984 40.9953 73.3547 40.9953 73.792C40.9953 74.2293 40.9073 74.6 40.7313 74.904C40.5553 75.208 40.3179 75.44 40.0193 75.6C39.7206 75.76 39.3846 75.84 39.0113 75.84ZM39.0673 75.336C39.3766 75.336 39.6513 75.272 39.8913 75.144C40.1313 75.0107 40.3206 74.8293 40.4593 74.6C40.5979 74.3653 40.6673 74.096 40.6673 73.792C40.6673 73.488 40.5979 73.2213 40.4593 72.992C40.3206 72.7627 40.1313 72.584 39.8913 72.456C39.6513 72.3227 39.3766 72.256 39.0673 72.256C38.7633 72.256 38.4886 72.3227 38.2433 72.456C38.0033 72.584 37.8139 72.7627 37.6753 72.992C37.5419 73.2213 37.4753 73.488 37.4753 73.792C37.4753 74.096 37.5419 74.3653 37.6753 74.6C37.8139 74.8293 38.0033 75.0107 38.2433 75.144C38.4886 75.272 38.7633 75.336 39.0673 75.336ZM42.7998 76V71.8H43.3438V72.944L43.2878 72.744C43.4051 72.424 43.6025 72.1813 43.8798 72.016C44.1571 71.8453 44.5011 71.76 44.9118 71.76V72.312C44.8905 72.312 44.8691 72.312 44.8478 72.312C44.8265 72.3067 44.8051 72.304 44.7838 72.304C44.3411 72.304 43.9945 72.44 43.7438 72.712C43.4931 72.9787 43.3678 73.36 43.3678 73.856V76H42.7998ZM48.2678 76V75.072L48.2438 74.92V73.368C48.2438 73.0107 48.1424 72.736 47.9398 72.544C47.7424 72.352 47.4464 72.256 47.0518 72.256C46.7798 72.256 46.5211 72.3013 46.2758 72.392C46.0304 72.4827 45.8224 72.6027 45.6518 72.752L45.3958 72.328C45.6091 72.1467 45.8651 72.008 46.1638 71.912C46.4624 71.8107 46.7771 71.76 47.1078 71.76C47.6518 71.76 48.0704 71.896 48.3638 72.168C48.6624 72.4347 48.8118 72.8427 48.8118 73.392V76H48.2678ZM46.8198 76.04C46.5051 76.04 46.2304 75.9893 45.9958 75.888C45.7664 75.7813 45.5904 75.6373 45.4678 75.456C45.3451 75.2693 45.2838 75.056 45.2838 74.816C45.2838 74.5973 45.3344 74.4 45.4358 74.224C45.5424 74.0427 45.7131 73.8987 45.9478 73.792C46.1878 73.68 46.5078 73.624 46.9078 73.624H48.3558V74.048H46.9238C46.5184 74.048 46.2358 74.12 46.0758 74.264C45.9211 74.408 45.8438 74.5867 45.8438 74.8C45.8438 75.04 45.9371 75.232 46.1238 75.376C46.3104 75.52 46.5718 75.592 46.9078 75.592C47.2278 75.592 47.5024 75.52 47.7318 75.376C47.9664 75.2267 48.1371 75.0133 48.2438 74.736L48.3718 75.128C48.2651 75.4053 48.0784 75.6267 47.8118 75.792C47.5504 75.9573 47.2198 76.04 46.8198 76.04ZM51.6825 76.04C51.2878 76.04 50.9838 75.9333 50.7705 75.72C50.5572 75.5067 50.4505 75.2053 50.4505 74.816V70.872H51.0185V74.784C51.0185 75.0293 51.0798 75.2187 51.2025 75.352C51.3305 75.4853 51.5118 75.552 51.7465 75.552C51.9972 75.552 52.2052 75.48 52.3705 75.336L52.5705 75.744C52.4585 75.8453 52.3225 75.92 52.1625 75.968C52.0078 76.016 51.8478 76.04 51.6825 76.04ZM49.6985 72.272V71.8H52.2985V72.272H49.6985ZM53.6045 76V71.8H54.1725V76H53.6045ZM53.8925 70.872C53.7752 70.872 53.6765 70.832 53.5965 70.752C53.5165 70.672 53.4765 70.576 53.4765 70.464C53.4765 70.352 53.5165 70.2587 53.5965 70.184C53.6765 70.104 53.7752 70.064 53.8925 70.064C54.0098 70.064 54.1085 70.1013 54.1885 70.176C54.2685 70.2507 54.3085 70.344 54.3085 70.456C54.3085 70.5733 54.2685 70.672 54.1885 70.752C54.1138 70.832 54.0152 70.872 53.8925 70.872ZM57.4649 76.04C57.0596 76.04 56.6943 75.9493 56.3689 75.768C56.0489 75.5813 55.7956 75.328 55.6089 75.008C55.4223 74.6827 55.3289 74.312 55.3289 73.896C55.3289 73.4747 55.4223 73.104 55.6089 72.784C55.7956 72.464 56.0489 72.2133 56.3689 72.032C56.6889 71.8507 57.0543 71.76 57.4649 71.76C57.8809 71.76 58.2489 71.8507 58.5689 72.032C58.8943 72.2133 59.1476 72.464 59.3289 72.784C59.5156 73.104 59.6089 73.4747 59.6089 73.896C59.6089 74.312 59.5156 74.6827 59.3289 75.008C59.1476 75.328 58.8943 75.5813 58.5689 75.768C58.2436 75.9493 57.8756 76.04 57.4649 76.04ZM57.4649 75.536C57.7689 75.536 58.0383 75.4693 58.2729 75.336C58.5076 75.1973 58.6916 75.0053 58.8249 74.76C58.9636 74.5093 59.0329 74.2213 59.0329 73.896C59.0329 73.5653 58.9636 73.2773 58.8249 73.032C58.6916 72.7867 58.5076 72.5973 58.2729 72.464C58.0383 72.3253 57.7716 72.256 57.4729 72.256C57.1743 72.256 56.9076 72.3253 56.6729 72.464C56.4383 72.5973 56.2516 72.7867 56.1129 73.032C55.9743 73.2773 55.9049 73.5653 55.9049 73.896C55.9049 74.2213 55.9743 74.5093 56.1129 74.76C56.2516 75.0053 56.4383 75.1973 56.6729 75.336C56.9076 75.4693 57.1716 75.536 57.4649 75.536ZM62.9126 71.76C63.2539 71.76 63.5526 71.8267 63.8086 71.96C64.0699 72.088 64.2726 72.2853 64.4166 72.552C64.5659 72.8187 64.6406 73.1547 64.6406 73.56V76H64.0726V73.616C64.0726 73.1733 63.9606 72.84 63.7366 72.616C63.5179 72.3867 63.2086 72.272 62.8086 72.272C62.5099 72.272 62.2486 72.3333 62.0246 72.456C61.8059 72.5733 61.6352 72.7467 61.5126 72.976C61.3952 73.2 61.3366 73.472 61.3366 73.792V76H60.7686V71.8H61.3126V72.952L61.2246 72.736C61.3579 72.432 61.5712 72.1947 61.8646 72.024C62.1579 71.848 62.5072 71.76 62.9126 71.76ZM70.9006 76V75.072L70.8766 74.92V73.368C70.8766 73.0107 70.7752 72.736 70.5726 72.544C70.3752 72.352 70.0792 72.256 69.6846 72.256C69.4126 72.256 69.1539 72.3013 68.9086 72.392C68.6632 72.4827 68.4552 72.6027 68.2846 72.752L68.0286 72.328C68.2419 72.1467 68.4979 72.008 68.7966 71.912C69.0952 71.8107 69.4099 71.76 69.7406 71.76C70.2846 71.76 70.7032 71.896 70.9966 72.168C71.2952 72.4347 71.4446 72.8427 71.4446 73.392V76H70.9006ZM69.4526 76.04C69.1379 76.04 68.8632 75.9893 68.6286 75.888C68.3992 75.7813 68.2232 75.6373 68.1006 75.456C67.9779 75.2693 67.9166 75.056 67.9166 74.816C67.9166 74.5973 67.9672 74.4 68.0686 74.224C68.1752 74.0427 68.3459 73.8987 68.5806 73.792C68.8206 73.68 69.1406 73.624 69.5406 73.624H70.9886V74.048H69.5566C69.1512 74.048 68.8686 74.12 68.7086 74.264C68.5539 74.408 68.4766 74.5867 68.4766 74.8C68.4766 75.04 68.5699 75.232 68.7566 75.376C68.9432 75.52 69.2046 75.592 69.5406 75.592C69.8606 75.592 70.1352 75.52 70.3646 75.376C70.5992 75.2267 70.7699 75.0133 70.8766 74.736L71.0046 75.128C70.8979 75.4053 70.7112 75.6267 70.4446 75.792C70.1832 75.9573 69.8526 76.04 69.4526 76.04ZM75.1313 71.76C75.4726 71.76 75.7713 71.8267 76.0273 71.96C76.2886 72.088 76.4913 72.2853 76.6353 72.552C76.7846 72.8187 76.8593 73.1547 76.8593 73.56V76H76.2913V73.616C76.2913 73.1733 76.1793 72.84 75.9553 72.616C75.7366 72.3867 75.4273 72.272 75.0273 72.272C74.7286 72.272 74.4673 72.3333 74.2433 72.456C74.0246 72.5733 73.854 72.7467 73.7313 72.976C73.614 73.2 73.5553 73.472 73.5553 73.792V76H72.9873V71.8H73.5313V72.952L73.4433 72.736C73.5766 72.432 73.79 72.1947 74.0833 72.024C74.3766 71.848 74.726 71.76 75.1313 71.76ZM80.0656 76.04C79.6656 76.04 79.3056 75.9493 78.9856 75.768C78.6709 75.5867 78.4229 75.336 78.2416 75.016C78.0602 74.6907 77.9696 74.3173 77.9696 73.896C77.9696 73.4693 78.0602 73.096 78.2416 72.776C78.4229 72.456 78.6709 72.208 78.9856 72.032C79.3056 71.8507 79.6656 71.76 80.0656 71.76C80.4336 71.76 80.7616 71.8427 81.0496 72.008C81.3429 72.1733 81.5749 72.416 81.7456 72.736C81.9216 73.0507 82.0096 73.4373 82.0096 73.896C82.0096 74.3493 81.9242 74.736 81.7536 75.056C81.5829 75.376 81.3509 75.6213 81.0576 75.792C80.7696 75.9573 80.4389 76.04 80.0656 76.04ZM80.1056 75.536C80.4042 75.536 80.6709 75.4693 80.9056 75.336C81.1456 75.1973 81.3322 75.0053 81.4656 74.76C81.6042 74.5093 81.6736 74.2213 81.6736 73.896C81.6736 73.5653 81.6042 73.2773 81.4656 73.032C81.3322 72.7867 81.1456 72.5973 80.9056 72.464C80.6709 72.3253 80.4042 72.256 80.1056 72.256C79.8122 72.256 79.5482 72.3253 79.3136 72.464C79.0789 72.5973 78.8922 72.7867 78.7536 73.032C78.6149 73.2773 78.5456 73.5653 78.5456 73.896C78.5456 74.2213 78.6149 74.5093 78.7536 74.76C78.8922 75.0053 79.0789 75.1973 79.3136 75.336C79.5482 75.4693 79.8122 75.536 80.1056 75.536ZM81.6896 76V74.736L81.7456 73.888L81.6656 73.04V70.064H82.2336V76H81.6896ZM18.344 86.048C17.9227 86.048 17.5333 85.9787 17.176 85.84C16.8187 85.696 16.5093 85.496 16.248 85.24C15.9867 84.984 15.7813 84.6827 15.632 84.336C15.488 83.9893 15.416 83.6107 15.416 83.2C15.416 82.7893 15.488 82.4107 15.632 82.064C15.7813 81.7173 15.9867 81.416 16.248 81.16C16.5147 80.904 16.8267 80.7067 17.184 80.568C17.5413 80.424 17.9307 80.352 18.352 80.352C18.7573 80.352 19.1387 80.4213 19.496 80.56C19.8533 80.6933 20.1547 80.896 20.4 81.168L20.024 81.544C19.7947 81.3093 19.5413 81.1413 19.264 81.04C18.9867 80.9333 18.688 80.88 18.368 80.88C18.032 80.88 17.72 80.9387 17.432 81.056C17.144 81.168 16.8933 81.3307 16.68 81.544C16.4667 81.752 16.2987 81.9973 16.176 82.28C16.0587 82.5573 16 82.864 16 83.2C16 83.536 16.0587 83.8453 16.176 84.128C16.2987 84.4053 16.4667 84.6507 16.68 84.864C16.8933 85.072 17.144 85.2347 17.432 85.352C17.72 85.464 18.032 85.52 18.368 85.52C18.688 85.52 18.9867 85.4667 19.264 85.36C19.5413 85.2533 19.7947 85.0827 20.024 84.848L20.4 85.224C20.1547 85.496 19.8533 85.7013 19.496 85.84C19.1387 85.9787 18.7547 86.048 18.344 86.048ZM23.0665 86.04C22.6612 86.04 22.2958 85.9493 21.9705 85.768C21.6505 85.5813 21.3972 85.328 21.2105 85.008C21.0238 84.6827 20.9305 84.312 20.9305 83.896C20.9305 83.4747 21.0238 83.104 21.2105 82.784C21.3972 82.464 21.6505 82.2133 21.9705 82.032C22.2905 81.8507 22.6558 81.76 23.0665 81.76C23.4825 81.76 23.8505 81.8507 24.1705 82.032C24.4958 82.2133 24.7492 82.464 24.9305 82.784C25.1172 83.104 25.2105 83.4747 25.2105 83.896C25.2105 84.312 25.1172 84.6827 24.9305 85.008C24.7492 85.328 24.4958 85.5813 24.1705 85.768C23.8452 85.9493 23.4772 86.04 23.0665 86.04ZM23.0665 85.536C23.3705 85.536 23.6398 85.4693 23.8745 85.336C24.1092 85.1973 24.2932 85.0053 24.4265 84.76C24.5652 84.5093 24.6345 84.2213 24.6345 83.896C24.6345 83.5653 24.5652 83.2773 24.4265 83.032C24.2932 82.7867 24.1092 82.5973 23.8745 82.464C23.6398 82.3253 23.3732 82.256 23.0745 82.256C22.7758 82.256 22.5092 82.3253 22.2745 82.464C22.0398 82.5973 21.8532 82.7867 21.7145 83.032C21.5758 83.2773 21.5065 83.5653 21.5065 83.896C21.5065 84.2213 21.5758 84.5093 21.7145 84.76C21.8532 85.0053 22.0398 85.1973 22.2745 85.336C22.5092 85.4693 22.7732 85.536 23.0665 85.536ZM28.5141 81.76C28.8555 81.76 29.1541 81.8267 29.4101 81.96C29.6715 82.088 29.8741 82.2853 30.0181 82.552C30.1675 82.8187 30.2421 83.1547 30.2421 83.56V86H29.6741V83.616C29.6741 83.1733 29.5621 82.84 29.3381 82.616C29.1195 82.3867 28.8101 82.272 28.4101 82.272C28.1115 82.272 27.8501 82.3333 27.6261 82.456C27.4075 82.5733 27.2368 82.7467 27.1141 82.976C26.9968 83.2 26.9381 83.472 26.9381 83.792V86H26.3701V81.8H26.9141V82.952L26.8261 82.736C26.9595 82.432 27.1728 82.1947 27.4661 82.024C27.7595 81.848 28.1088 81.76 28.5141 81.76ZM32.9044 86.04C32.5577 86.04 32.2297 85.992 31.9204 85.896C31.611 85.7947 31.3684 85.6693 31.1924 85.52L31.4484 85.072C31.619 85.2 31.8377 85.312 32.1044 85.408C32.371 85.4987 32.651 85.544 32.9444 85.544C33.3444 85.544 33.6324 85.4827 33.8084 85.36C33.9844 85.232 34.0724 85.064 34.0724 84.856C34.0724 84.7013 34.0217 84.5813 33.9204 84.496C33.8244 84.4053 33.6964 84.3387 33.5364 84.296C33.3764 84.248 33.1977 84.208 33.0004 84.176C32.803 84.144 32.6057 84.1067 32.4084 84.064C32.2164 84.0213 32.0404 83.96 31.8804 83.88C31.7204 83.7947 31.5897 83.68 31.4884 83.536C31.3924 83.392 31.3444 83.2 31.3444 82.96C31.3444 82.7307 31.4084 82.5253 31.5364 82.344C31.6644 82.1627 31.851 82.0213 32.0964 81.92C32.347 81.8133 32.651 81.76 33.0084 81.76C33.2804 81.76 33.5524 81.7973 33.8244 81.872C34.0964 81.9413 34.3204 82.0347 34.4964 82.152L34.2484 82.608C34.0617 82.48 33.8617 82.3893 33.6484 82.336C33.435 82.2773 33.2217 82.248 33.0084 82.248C32.6297 82.248 32.3497 82.3147 32.1684 82.448C31.9924 82.576 31.9044 82.7413 31.9044 82.944C31.9044 83.104 31.9524 83.2293 32.0484 83.32C32.1497 83.4107 32.2804 83.4827 32.4404 83.536C32.6057 83.584 32.7844 83.624 32.9764 83.656C33.1737 83.688 33.3684 83.728 33.5604 83.776C33.7577 83.8187 33.9364 83.88 34.0964 83.96C34.2617 84.0347 34.3924 84.144 34.4884 84.288C34.5897 84.4267 34.6404 84.6107 34.6404 84.84C34.6404 85.0853 34.571 85.2987 34.4324 85.48C34.299 85.656 34.1017 85.7947 33.8404 85.896C33.5844 85.992 33.2724 86.04 32.9044 86.04ZM37.4186 86.04C37.0613 86.04 36.7493 85.9733 36.4826 85.84C36.216 85.7067 36.008 85.5067 35.8586 85.24C35.7146 84.9733 35.6426 84.64 35.6426 84.24V81.8H36.2106V84.176C36.2106 84.624 36.32 84.9627 36.5386 85.192C36.7626 85.416 37.0746 85.528 37.4746 85.528C37.768 85.528 38.0213 85.4693 38.2346 85.352C38.4533 85.2293 38.6186 85.0533 38.7306 84.824C38.848 84.5947 38.9066 84.32 38.9066 84V81.8H39.4746V86H38.9306V84.848L39.0186 85.056C38.8853 85.3653 38.6773 85.608 38.3946 85.784C38.1173 85.9547 37.792 86.04 37.4186 86.04ZM41.0576 86V80.064H41.6256V86H41.0576ZM44.5575 86.04C44.1628 86.04 43.8588 85.9333 43.6455 85.72C43.4322 85.5067 43.3255 85.2053 43.3255 84.816V80.872H43.8935V84.784C43.8935 85.0293 43.9548 85.2187 44.0775 85.352C44.2055 85.4853 44.3868 85.552 44.6215 85.552C44.8722 85.552 45.0802 85.48 45.2455 85.336L45.4455 85.744C45.3335 85.8453 45.1975 85.92 45.0375 85.968C44.8828 86.016 44.7228 86.04 44.5575 86.04ZM42.5735 82.272V81.8H45.1735V82.272H42.5735ZM49.1115 86V85.072L49.0875 84.92V83.368C49.0875 83.0107 48.9862 82.736 48.7835 82.544C48.5862 82.352 48.2902 82.256 47.8955 82.256C47.6235 82.256 47.3648 82.3013 47.1195 82.392C46.8742 82.4827 46.6662 82.6027 46.4955 82.752L46.2395 82.328C46.4528 82.1467 46.7088 82.008 47.0075 81.912C47.3062 81.8107 47.6208 81.76 47.9515 81.76C48.4955 81.76 48.9142 81.896 49.2075 82.168C49.5062 82.4347 49.6555 82.8427 49.6555 83.392V86H49.1115ZM47.6635 86.04C47.3488 86.04 47.0742 85.9893 46.8395 85.888C46.6102 85.7813 46.4342 85.6373 46.3115 85.456C46.1888 85.2693 46.1275 85.056 46.1275 84.816C46.1275 84.5973 46.1782 84.4 46.2795 84.224C46.3862 84.0427 46.5568 83.8987 46.7915 83.792C47.0315 83.68 47.3515 83.624 47.7515 83.624H49.1995V84.048H47.7675C47.3622 84.048 47.0795 84.12 46.9195 84.264C46.7648 84.408 46.6875 84.5867 46.6875 84.8C46.6875 85.04 46.7808 85.232 46.9675 85.376C47.1542 85.52 47.4155 85.592 47.7515 85.592C48.0715 85.592 48.3462 85.52 48.5755 85.376C48.8102 85.2267 48.9808 85.0133 49.0875 84.736L49.2155 85.128C49.1088 85.4053 48.9222 85.6267 48.6555 85.792C48.3942 85.9573 48.0635 86.04 47.6635 86.04ZM52.5263 86.04C52.1316 86.04 51.8276 85.9333 51.6143 85.72C51.4009 85.5067 51.2943 85.2053 51.2943 84.816V80.872H51.8623V84.784C51.8623 85.0293 51.9236 85.2187 52.0463 85.352C52.1743 85.4853 52.3556 85.552 52.5903 85.552C52.8409 85.552 53.0489 85.48 53.2143 85.336L53.4143 85.744C53.3023 85.8453 53.1663 85.92 53.0063 85.968C52.8516 86.016 52.6916 86.04 52.5263 86.04ZM50.5423 82.272V81.8H53.1423V82.272H50.5423ZM54.4483 86V81.8H55.0163V86H54.4483ZM54.7363 80.872C54.6189 80.872 54.5203 80.832 54.4403 80.752C54.3603 80.672 54.3203 80.576 54.3203 80.464C54.3203 80.352 54.3603 80.2587 54.4403 80.184C54.5203 80.104 54.6189 80.064 54.7363 80.064C54.8536 80.064 54.9523 80.1013 55.0323 80.176C55.1123 80.2507 55.1523 80.344 55.1523 80.456C55.1523 80.5733 55.1123 80.672 55.0323 80.752C54.9576 80.832 54.8589 80.872 54.7363 80.872ZM58.3087 86.04C57.9034 86.04 57.538 85.9493 57.2127 85.768C56.8927 85.5813 56.6394 85.328 56.4527 85.008C56.266 84.6827 56.1727 84.312 56.1727 83.896C56.1727 83.4747 56.266 83.104 56.4527 82.784C56.6394 82.464 56.8927 82.2133 57.2127 82.032C57.5327 81.8507 57.898 81.76 58.3087 81.76C58.7247 81.76 59.0927 81.8507 59.4127 82.032C59.738 82.2133 59.9914 82.464 60.1727 82.784C60.3594 83.104 60.4527 83.4747 60.4527 83.896C60.4527 84.312 60.3594 84.6827 60.1727 85.008C59.9914 85.328 59.738 85.5813 59.4127 85.768C59.0874 85.9493 58.7194 86.04 58.3087 86.04ZM58.3087 85.536C58.6127 85.536 58.882 85.4693 59.1167 85.336C59.3514 85.1973 59.5354 85.0053 59.6687 84.76C59.8074 84.5093 59.8767 84.2213 59.8767 83.896C59.8767 83.5653 59.8074 83.2773 59.6687 83.032C59.5354 82.7867 59.3514 82.5973 59.1167 82.464C58.882 82.3253 58.6154 82.256 58.3167 82.256C58.018 82.256 57.7514 82.3253 57.5167 82.464C57.282 82.5973 57.0954 82.7867 56.9567 83.032C56.818 83.2773 56.7487 83.5653 56.7487 83.896C56.7487 84.2213 56.818 84.5093 56.9567 84.76C57.0954 85.0053 57.282 85.1973 57.5167 85.336C57.7514 85.4693 58.0154 85.536 58.3087 85.536ZM63.7563 81.76C64.0976 81.76 64.3963 81.8267 64.6523 81.96C64.9136 82.088 65.1163 82.2853 65.2603 82.552C65.4096 82.8187 65.4843 83.1547 65.4843 83.56V86H64.9163V83.616C64.9163 83.1733 64.8043 82.84 64.5803 82.616C64.3616 82.3867 64.0523 82.272 63.6523 82.272C63.3536 82.272 63.0923 82.3333 62.8683 82.456C62.6496 82.5733 62.479 82.7467 62.3563 82.976C62.239 83.2 62.1803 83.472 62.1803 83.792V86H61.6123V81.8H62.1563V82.952L62.0683 82.736C62.2016 82.432 62.415 82.1947 62.7083 82.024C63.0016 81.848 63.351 81.76 63.7563 81.76ZM17.456 96.048C17.04 96.048 16.64 95.9813 16.256 95.848C15.8773 95.7093 15.584 95.5333 15.376 95.32L15.608 94.864C15.8053 95.056 16.0693 95.2187 16.4 95.352C16.736 95.48 17.088 95.544 17.456 95.544C17.808 95.544 18.0933 95.5013 18.312 95.416C18.536 95.3253 18.6987 95.2053 18.8 95.056C18.9067 94.9067 18.96 94.7413 18.96 94.56C18.96 94.3413 18.896 94.1653 18.768 94.032C18.6453 93.8987 18.4827 93.7947 18.28 93.72C18.0773 93.64 17.8533 93.5707 17.608 93.512C17.3627 93.4533 17.1173 93.392 16.872 93.328C16.6267 93.2587 16.4 93.168 16.192 93.056C15.9893 92.944 15.824 92.7973 15.696 92.616C15.5733 92.4293 15.512 92.1867 15.512 91.888C15.512 91.6107 15.584 91.3573 15.728 91.128C15.8773 90.8933 16.104 90.7067 16.408 90.568C16.712 90.424 17.1013 90.352 17.576 90.352C17.8907 90.352 18.2027 90.3973 18.512 90.488C18.8213 90.5733 19.088 90.6933 19.312 90.848L19.112 91.32C18.872 91.16 18.616 91.0427 18.344 90.968C18.0773 90.8933 17.8187 90.856 17.568 90.856C17.232 90.856 16.9547 90.9013 16.736 90.992C16.5173 91.0827 16.3547 91.2053 16.248 91.36C16.1467 91.5093 16.096 91.68 16.096 91.872C16.096 92.0907 16.1573 92.2667 16.28 92.4C16.408 92.5333 16.5733 92.6373 16.776 92.712C16.984 92.7867 17.2107 92.8533 17.456 92.912C17.7013 92.9707 17.944 93.0347 18.184 93.104C18.4293 93.1733 18.6533 93.264 18.856 93.376C19.064 93.4827 19.2293 93.6267 19.352 93.808C19.48 93.9893 19.544 94.2267 19.544 94.52C19.544 94.792 19.4693 95.0453 19.32 95.28C19.1707 95.5093 18.9413 95.696 18.632 95.84C18.328 95.9787 17.936 96.048 17.456 96.048ZM22.4979 96.04C22.0605 96.04 21.6765 95.9493 21.3459 95.768C21.0152 95.5813 20.7565 95.328 20.5699 95.008C20.3832 94.6827 20.2899 94.312 20.2899 93.896C20.2899 93.48 20.3779 93.112 20.5539 92.792C20.7352 92.472 20.9805 92.2213 21.2899 92.04C21.6045 91.8533 21.9565 91.76 22.3459 91.76C22.7405 91.76 23.0899 91.8507 23.3939 92.032C23.7032 92.208 23.9459 92.4587 24.1219 92.784C24.2979 93.104 24.3859 93.4747 24.3859 93.896C24.3859 93.9227 24.3832 93.952 24.3779 93.984C24.3779 94.0107 24.3779 94.04 24.3779 94.072H20.7219V93.648H24.0739L23.8499 93.816C23.8499 93.512 23.7832 93.2427 23.6499 93.008C23.5219 92.768 23.3459 92.5813 23.1219 92.448C22.8979 92.3147 22.6392 92.248 22.3459 92.248C22.0579 92.248 21.7992 92.3147 21.5699 92.448C21.3405 92.5813 21.1619 92.768 21.0339 93.008C20.9059 93.248 20.8419 93.5227 20.8419 93.832V93.92C20.8419 94.24 20.9112 94.5227 21.0499 94.768C21.1939 95.008 21.3912 95.1973 21.6419 95.336C21.8979 95.4693 22.1885 95.536 22.5139 95.536C22.7699 95.536 23.0072 95.4907 23.2259 95.4C23.4499 95.3093 23.6419 95.1707 23.8019 94.984L24.1219 95.352C23.9352 95.576 23.7005 95.7467 23.4179 95.864C23.1405 95.9813 22.8339 96.04 22.4979 96.04ZM25.542 96V91.8H26.086V92.944L26.03 92.744C26.1473 92.424 26.3447 92.1813 26.622 92.016C26.8993 91.8453 27.2433 91.76 27.654 91.76V92.312C27.6327 92.312 27.6113 92.312 27.59 92.312C27.5687 92.3067 27.5473 92.304 27.526 92.304C27.0833 92.304 26.7367 92.44 26.486 92.712C26.2353 92.9787 26.11 93.36 26.11 93.856V96H25.542ZM29.9501 96L28.0861 91.8H28.6781L30.3901 95.696H30.1101L31.8461 91.8H32.4061L30.5341 96H29.9501ZM33.2061 96V91.8H33.7741V96H33.2061ZM33.4941 90.872C33.3767 90.872 33.2781 90.832 33.1981 90.752C33.1181 90.672 33.0781 90.576 33.0781 90.464C33.0781 90.352 33.1181 90.2587 33.1981 90.184C33.2781 90.104 33.3767 90.064 33.4941 90.064C33.6114 90.064 33.7101 90.1013 33.7901 90.176C33.8701 90.2507 33.9101 90.344 33.9101 90.456C33.9101 90.5733 33.8701 90.672 33.7901 90.752C33.7154 90.832 33.6167 90.872 33.4941 90.872ZM37.0985 96.04C36.6825 96.04 36.3092 95.9493 35.9785 95.768C35.6532 95.5813 35.3972 95.328 35.2105 95.008C35.0238 94.6827 34.9305 94.312 34.9305 93.896C34.9305 93.4747 35.0238 93.104 35.2105 92.784C35.3972 92.464 35.6532 92.2133 35.9785 92.032C36.3092 91.8507 36.6825 91.76 37.0985 91.76C37.4558 91.76 37.7785 91.8293 38.0665 91.968C38.3545 92.1067 38.5812 92.3147 38.7465 92.592L38.3225 92.88C38.1785 92.6667 37.9998 92.5093 37.7865 92.408C37.5732 92.3067 37.3412 92.256 37.0905 92.256C36.7918 92.256 36.5225 92.3253 36.2825 92.464C36.0425 92.5973 35.8532 92.7867 35.7145 93.032C35.5758 93.2773 35.5065 93.5653 35.5065 93.896C35.5065 94.2267 35.5758 94.5147 35.7145 94.76C35.8532 95.0053 36.0425 95.1973 36.2825 95.336C36.5225 95.4693 36.7918 95.536 37.0905 95.536C37.3412 95.536 37.5732 95.4853 37.7865 95.384C37.9998 95.2827 38.1785 95.128 38.3225 94.92L38.7465 95.208C38.5812 95.48 38.3545 95.688 38.0665 95.832C37.7785 95.9707 37.4558 96.04 37.0985 96.04ZM41.576 96.04C41.1387 96.04 40.7547 95.9493 40.424 95.768C40.0933 95.5813 39.8347 95.328 39.648 95.008C39.4613 94.6827 39.368 94.312 39.368 93.896C39.368 93.48 39.456 93.112 39.632 92.792C39.8133 92.472 40.0587 92.2213 40.368 92.04C40.6827 91.8533 41.0347 91.76 41.424 91.76C41.8187 91.76 42.168 91.8507 42.472 92.032C42.7813 92.208 43.024 92.4587 43.2 92.784C43.376 93.104 43.464 93.4747 43.464 93.896C43.464 93.9227 43.4613 93.952 43.456 93.984C43.456 94.0107 43.456 94.04 43.456 94.072H39.8V93.648H43.152L42.928 93.816C42.928 93.512 42.8613 93.2427 42.728 93.008C42.6 92.768 42.424 92.5813 42.2 92.448C41.976 92.3147 41.7173 92.248 41.424 92.248C41.136 92.248 40.8773 92.3147 40.648 92.448C40.4187 92.5813 40.24 92.768 40.112 93.008C39.984 93.248 39.92 93.5227 39.92 93.832V93.92C39.92 94.24 39.9893 94.5227 40.128 94.768C40.272 95.008 40.4693 95.1973 40.72 95.336C40.976 95.4693 41.2667 95.536 41.592 95.536C41.848 95.536 42.0853 95.4907 42.304 95.4C42.528 95.3093 42.72 95.1707 42.88 94.984L43.2 95.352C43.0133 95.576 42.7787 95.7467 42.496 95.864C42.2187 95.9813 41.912 96.04 41.576 96.04ZM45.7481 96.04C45.4015 96.04 45.0735 95.992 44.7641 95.896C44.4548 95.7947 44.2121 95.6693 44.0361 95.52L44.2921 95.072C44.4628 95.2 44.6815 95.312 44.9481 95.408C45.2148 95.4987 45.4948 95.544 45.7881 95.544C46.1881 95.544 46.4761 95.4827 46.6521 95.36C46.8281 95.232 46.9161 95.064 46.9161 94.856C46.9161 94.7013 46.8655 94.5813 46.7641 94.496C46.6681 94.4053 46.5401 94.3387 46.3801 94.296C46.2201 94.248 46.0415 94.208 45.8441 94.176C45.6468 94.144 45.4495 94.1067 45.2521 94.064C45.0601 94.0213 44.8841 93.96 44.7241 93.88C44.5641 93.7947 44.4335 93.68 44.3321 93.536C44.2361 93.392 44.1881 93.2 44.1881 92.96C44.1881 92.7307 44.2521 92.5253 44.3801 92.344C44.5081 92.1627 44.6948 92.0213 44.9401 91.92C45.1908 91.8133 45.4948 91.76 45.8521 91.76C46.1241 91.76 46.3961 91.7973 46.6681 91.872C46.9401 91.9413 47.1641 92.0347 47.3401 92.152L47.0921 92.608C46.9055 92.48 46.7055 92.3893 46.4921 92.336C46.2788 92.2773 46.0655 92.248 45.8521 92.248C45.4735 92.248 45.1935 92.3147 45.0121 92.448C44.8361 92.576 44.7481 92.7413 44.7481 92.944C44.7481 93.104 44.7961 93.2293 44.8921 93.32C44.9935 93.4107 45.1241 93.4827 45.2841 93.536C45.4495 93.584 45.6281 93.624 45.8201 93.656C46.0175 93.688 46.2121 93.728 46.4041 93.776C46.6015 93.8187 46.7801 93.88 46.9401 93.96C47.1055 94.0347 47.2361 94.144 47.3321 94.288C47.4335 94.4267 47.4841 94.6107 47.4841 94.84C47.4841 95.0853 47.4148 95.2987 47.2761 95.48C47.1428 95.656 46.9455 95.7947 46.6841 95.896C46.4281 95.992 46.1161 96.04 45.7481 96.04Z" fill="white"/>
</svg>
