<svg width="24" height="24" viewBox="0 0 24 24" fill="none" xmlns="http://www.w3.org/2000/svg">
<circle cx="12" cy="12" r="12" fill="white"/>
<path d="M18.3996 9.8986V15.6002C18.3996 16.1306 18.1889 16.6393 17.8138 17.0144C17.4387 17.3895 16.93 17.6002 16.3996 17.6002H7.59961C7.06918 17.6002 6.56047 17.3895 6.1854 17.0144C5.81032 16.6393 5.59961 16.1306 5.59961 15.6002V9.8986L11.7964 13.545C11.858 13.5813 11.9281 13.6005 11.9996 13.6005C12.0711 13.6005 12.1412 13.5813 12.2028 13.545L18.3996 9.8986ZM16.3996 7.2002C16.8917 7.20012 17.3666 7.38148 17.7334 7.70959C18.1002 8.03769 18.3331 8.48951 18.3876 8.9786L11.9996 12.7362L5.61161 8.9786C5.66614 8.48951 5.89907 8.03769 6.26585 7.70959C6.63262 7.38148 7.10749 7.20012 7.59961 7.2002H16.3996Z" fill="#002060"/>
</svg>
