<svg width="24" height="24" viewBox="0 0 24 24" fill="none" xmlns="http://www.w3.org/2000/svg">
<circle cx="12" cy="12" r="12" fill="white"/>
<path fill-rule="evenodd" clip-rule="evenodd" d="M8.97602 4.71099C9.75802 4.67499 10.0073 4.66699 11.9993 4.66699C13.9913 4.66699 14.2407 4.67566 15.022 4.71099C15.8033 4.74633 16.3367 4.87099 16.8033 5.05166C17.292 5.23633 17.7353 5.52499 18.102 5.89833C18.4753 6.26433 18.7633 6.70699 18.9473 7.19633C19.1287 7.66299 19.2527 8.19633 19.2887 8.97633C19.3247 9.75966 19.3327 10.009 19.3327 12.0003C19.3327 13.9923 19.324 14.2417 19.2887 15.0237C19.2533 15.8037 19.1287 16.337 18.9473 16.8037C18.7633 17.2931 18.4749 17.7365 18.102 18.103C17.7353 18.4763 17.292 18.7643 16.8033 18.9483C16.3367 19.1297 15.8033 19.2537 15.0233 19.2897C14.2407 19.3257 13.9913 19.3337 11.9993 19.3337C10.0073 19.3337 9.75802 19.325 8.97602 19.2897C8.19602 19.2543 7.66268 19.1297 7.19602 18.9483C6.70663 18.7643 6.26323 18.4758 5.89668 18.103C5.5236 17.7368 5.23489 17.2936 5.05068 16.8043C4.87002 16.3377 4.74602 15.8043 4.71002 15.0243C4.67402 14.241 4.66602 13.9917 4.66602 12.0003C4.66602 10.0083 4.67468 9.75899 4.71002 8.97766C4.74535 8.19633 4.87002 7.66299 5.05068 7.19633C5.23516 6.70705 5.52409 6.26387 5.89735 5.89766C6.26338 5.52466 6.70633 5.23595 7.19535 5.05166C7.66202 4.87099 8.19535 4.74699 8.97535 4.71099H8.97602ZM14.9627 6.03099C14.1893 5.99566 13.9573 5.98833 11.9993 5.98833C10.0413 5.98833 9.80935 5.99566 9.03602 6.03099C8.32068 6.06366 7.93268 6.18299 7.67402 6.28366C7.33202 6.41699 7.08735 6.57499 6.83068 6.83166C6.58738 7.06836 6.40014 7.35651 6.28268 7.67499C6.18202 7.93366 6.06268 8.32166 6.03002 9.03699C5.99468 9.81032 5.98735 10.0423 5.98735 12.0003C5.98735 13.9583 5.99468 14.1903 6.03002 14.9637C6.06268 15.679 6.18202 16.067 6.28268 16.3257C6.40002 16.6437 6.58735 16.9323 6.83068 17.169C7.06735 17.4123 7.35602 17.5997 7.67402 17.717C7.93268 17.8177 8.32068 17.937 9.03602 17.9697C9.80935 18.005 10.0407 18.0123 11.9993 18.0123C13.958 18.0123 14.1893 18.005 14.9627 17.9697C15.678 17.937 16.066 17.8177 16.3247 17.717C16.6667 17.5837 16.9113 17.4257 17.168 17.169C17.4113 16.9323 17.5987 16.6437 17.716 16.3257C17.8167 16.067 17.936 15.679 17.9687 14.9637C18.004 14.1903 18.0113 13.9583 18.0113 12.0003C18.0113 10.0423 18.004 9.81032 17.9687 9.03699C17.936 8.32166 17.8167 7.93366 17.716 7.67499C17.5827 7.33299 17.4247 7.08833 17.168 6.83166C16.9313 6.58837 16.6432 6.40113 16.3247 6.28366C16.066 6.18299 15.678 6.06366 14.9627 6.03099ZM11.0627 14.261C11.5858 14.4787 12.1683 14.5081 12.7106 14.3441C13.253 14.1801 13.7216 13.8329 14.0364 13.3618C14.3512 12.8907 14.4927 12.3249 14.4367 11.7611C14.3807 11.1972 14.1307 10.6703 13.7293 10.2703C13.4735 10.0146 13.1642 9.81887 12.8236 9.69709C12.483 9.57531 12.1196 9.53057 11.7597 9.56607C11.3997 9.60157 11.0521 9.71644 10.7419 9.90241C10.4317 10.0884 10.1665 10.3408 9.96555 10.6416C9.76459 10.9423 9.63281 11.2839 9.57969 11.6416C9.52658 11.9994 9.55345 12.3645 9.65838 12.7107C9.7633 13.0568 9.94367 13.3754 10.1865 13.6435C10.4293 13.9115 10.7286 14.1224 11.0627 14.261ZM9.33402 9.33499C9.68403 8.98497 10.0996 8.70733 10.5569 8.5179C11.0142 8.32847 11.5044 8.23097 11.9993 8.23097C12.4943 8.23097 12.9845 8.32847 13.4418 8.5179C13.8991 8.70733 14.3147 8.98497 14.6647 9.33499C15.0147 9.68501 15.2923 10.1005 15.4818 10.5579C15.6712 11.0152 15.7687 11.5053 15.7687 12.0003C15.7687 12.4953 15.6712 12.9855 15.4818 13.4428C15.2923 13.9001 15.0147 14.3156 14.6647 14.6657C13.9578 15.3725 12.999 15.7697 11.9993 15.7697C10.9997 15.7697 10.0409 15.3725 9.33402 14.6657C8.62713 13.9588 8.23 13 8.23 12.0003C8.23 11.0006 8.62713 10.0419 9.33402 9.33499ZM16.6047 8.79233C16.6914 8.7105 16.7609 8.61211 16.8089 8.50297C16.8569 8.39384 16.8826 8.27617 16.8843 8.15694C16.886 8.03772 16.8638 7.91936 16.819 7.80887C16.7742 7.69837 16.7076 7.598 16.6233 7.51368C16.539 7.42937 16.4386 7.36283 16.3281 7.318C16.2177 7.27318 16.0993 7.25098 15.9801 7.25271C15.8608 7.25445 15.7432 7.28009 15.634 7.32812C15.5249 7.37615 15.4265 7.44559 15.3447 7.53233C15.1856 7.70101 15.0984 7.92507 15.1018 8.15694C15.1052 8.38882 15.1988 8.61024 15.3628 8.77422C15.5268 8.9382 15.7482 9.03181 15.9801 9.03519C16.2119 9.03857 16.436 8.95145 16.6047 8.79233Z" fill="#002060"/>
</svg>
