<svg width="24" height="24" viewBox="0 0 24 24" fill="none" xmlns="http://www.w3.org/2000/svg">
<circle cx="12" cy="12" r="12" fill="white"/>
<path d="M11.9987 17.9984C11.1567 17.2802 10.3762 16.4928 9.66537 15.6444C8.5987 14.3704 7.33203 12.4731 7.33203 10.6651C7.33157 9.74174 7.60504 8.839 8.11783 8.07112C8.63062 7.30324 9.35968 6.70474 10.2127 6.35137C11.0658 5.99799 12.0045 5.90563 12.9101 6.08596C13.8157 6.2663 14.6474 6.71122 15.3 7.36443C15.7345 7.79701 16.0789 8.31146 16.3133 8.87802C16.5476 9.44457 16.6673 10.052 16.6654 10.6651C16.6654 12.4731 15.3987 14.3704 14.332 15.6444C13.6212 16.4928 12.8407 17.2802 11.9987 17.9984ZM11.9987 8.6651C11.4683 8.6651 10.9596 8.87581 10.5845 9.25089C10.2094 9.62596 9.9987 10.1347 9.9987 10.6651C9.9987 11.1955 10.2094 11.7042 10.5845 12.0793C10.9596 12.4544 11.4683 12.6651 11.9987 12.6651C12.5291 12.6651 13.0378 12.4544 13.4129 12.0793C13.788 11.7042 13.9987 11.1955 13.9987 10.6651C13.9987 10.1347 13.788 9.62596 13.4129 9.25089C13.0378 8.87581 12.5291 8.6651 11.9987 8.6651Z" fill="#002060"/>
</svg>
