<svg width="24" height="24" viewBox="0 0 24 24" fill="none" xmlns="http://www.w3.org/2000/svg">
<circle cx="12" cy="12" r="12" fill="white"/>
<path d="M18.4016 9.89762V15.5992C18.4016 16.1297 18.1908 16.6384 17.8158 17.0134C17.4407 17.3885 16.932 17.5992 16.4016 17.5992H7.60156C7.07113 17.5992 6.56242 17.3885 6.18735 17.0134C5.81228 16.6384 5.60156 16.1297 5.60156 15.5992V9.89762L11.7984 13.544C11.8599 13.5803 11.9301 13.5995 12.0016 13.5995C12.073 13.5995 12.1432 13.5803 12.2048 13.544L18.4016 9.89762ZM16.4016 7.19922C16.8937 7.19914 17.3685 7.3805 17.7353 7.70861C18.1021 8.03672 18.335 8.48853 18.3896 8.97762L12.0016 12.7352L5.61356 8.97762C5.66809 8.48853 5.90102 8.03672 6.2678 7.70861C6.63458 7.3805 7.10945 7.19914 7.60156 7.19922H16.4016Z" fill="#002060"/>
</svg>
