<svg width="24" height="24" viewBox="0 0 24 24" fill="none" xmlns="http://www.w3.org/2000/svg">
<circle cx="12" cy="12" r="12" fill="white"/>
<path d="M9.58799 5.65405C9.93806 5.54851 10.3137 5.56604 10.6524 5.70374C10.9911 5.84143 11.2725 6.09099 11.4496 6.41085L11.5088 6.53005L12.0384 7.70685C12.1991 8.06404 12.2513 8.4606 12.1884 8.8472C12.1255 9.2338 11.9504 9.5934 11.6848 9.88125L11.5784 9.98685L10.744 10.7653C10.5936 10.9077 10.7064 11.4589 11.2504 12.4013C11.74 13.2493 12.1384 13.6453 12.3344 13.6669H12.3688L12.4112 13.6589L14.0512 13.1573C14.2716 13.0897 14.5068 13.087 14.7287 13.1495C14.9506 13.2121 15.1498 13.3373 15.3024 13.5101L15.3752 13.6021L16.4608 15.1061C16.6735 15.4008 16.7796 15.7593 16.7614 16.1224C16.7432 16.4855 16.6019 16.8316 16.3608 17.1037L16.2632 17.2045L15.8296 17.6157C15.4402 17.9844 14.9532 18.2336 14.4263 18.3335C13.8995 18.4335 13.355 18.3801 12.8576 18.1797C11.3096 17.5556 9.90319 16.1301 8.62559 13.9173C7.34559 11.6989 6.81359 9.76525 7.05119 8.10925C7.12309 7.60866 7.32922 7.1369 7.6477 6.74405C7.96617 6.3512 8.3851 6.05194 8.85999 5.87805L9.01439 5.82685L9.58799 5.65405Z" fill="#002060"/>
</svg>
