<svg width="34" height="34" viewBox="0 0 34 34" fill="none" xmlns="http://www.w3.org/2000/svg">
<path d="M13.991 10.6244C13.8928 10.7248 13.8379 10.8597 13.8379 11.0001C13.8379 11.1405 13.8928 11.2754 13.991 11.3759L19.4731 16.9997L13.991 22.6225C13.8928 22.7229 13.8379 22.8578 13.8379 22.9982C13.8379 23.1387 13.8928 23.2735 13.991 23.374C14.0386 23.423 14.0957 23.4619 14.1587 23.4885C14.2217 23.5151 14.2893 23.5288 14.3577 23.5288C14.4261 23.5288 14.4937 23.5151 14.5567 23.4885C14.6197 23.4619 14.6768 23.423 14.7245 23.374L20.5542 17.3924C20.6566 17.2873 20.7139 17.1464 20.7139 16.9997C20.7139 16.853 20.6566 16.7122 20.5542 16.6071L14.7245 10.6255C14.6768 10.5765 14.6197 10.5376 14.5567 10.511C14.4937 10.4844 14.4261 10.4707 14.3577 10.4707C14.2893 10.4707 14.2217 10.4844 14.1587 10.511C14.0957 10.5376 14.0386 10.5765 13.991 10.6255V10.6244Z" fill="#FFCE1B"/>
<circle cx="17" cy="17" r="16.75" stroke="#FFCE1B" stroke-width="0.5"/>
</svg>
