<svg width="24" height="24" viewBox="0 0 24 24" fill="none" xmlns="http://www.w3.org/2000/svg">
<circle cx="12" cy="12" r="12" fill="white"/>
<path d="M18.3996 9.89835V15.6C18.3996 16.1304 18.1889 16.6391 17.8138 17.0142C17.4387 17.3892 16.93 17.6 16.3996 17.6H7.59961C7.06918 17.6 6.56047 17.3892 6.1854 17.0142C5.81032 16.6391 5.59961 16.1304 5.59961 15.6V9.89835L11.7964 13.5448C11.858 13.5811 11.9281 13.6002 11.9996 13.6002C12.0711 13.6002 12.1412 13.5811 12.2028 13.5448L18.3996 9.89835ZM16.3996 7.19995C16.8917 7.19987 17.3666 7.38124 17.7334 7.70934C18.1002 8.03745 18.3331 8.48926 18.3876 8.97835L11.9996 12.736L5.61161 8.97835C5.66614 8.48926 5.89907 8.03745 6.26585 7.70934C6.63262 7.38124 7.10749 7.19987 7.59961 7.19995H16.3996Z" fill="#002060"/>
</svg>
