<svg width="28" height="28" viewBox="0 0 28 28" fill="none" xmlns="http://www.w3.org/2000/svg">
<circle cx="14" cy="14" r="14" fill="#002060"/>
<path fill-rule="evenodd" clip-rule="evenodd" d="M21.35 13.9998C21.35 14.1391 21.2947 14.2726 21.1963 14.3711C21.0978 14.4695 20.9643 14.5248 20.825 14.5248H8.44239L11.7467 17.8281C11.8453 17.9267 11.9007 18.0604 11.9007 18.1998C11.9007 18.3392 11.8453 18.473 11.7467 18.5715C11.6482 18.6701 11.5145 18.7255 11.375 18.7255C11.2356 18.7255 11.1019 18.6701 11.0033 18.5715L6.80334 14.3715C6.75444 14.3228 6.71565 14.2648 6.68919 14.201C6.66272 14.1373 6.6491 14.0689 6.6491 13.9998C6.6491 13.9308 6.66272 13.8624 6.68919 13.7986C6.71565 13.7348 6.75444 13.6769 6.80334 13.6281L11.0033 9.42813C11.1019 9.32955 11.2356 9.27417 11.375 9.27417C11.5145 9.27417 11.6482 9.32955 11.7467 9.42813C11.8453 9.52671 11.9007 9.66042 11.9007 9.79983C11.9007 9.93925 11.8453 10.073 11.7467 10.1715L8.44239 13.4748H20.825C20.9643 13.4748 21.0978 13.5301 21.1963 13.6286C21.2947 13.7271 21.35 13.8606 21.35 13.9998Z" fill="white"/>
</svg>
