<svg width="34" height="34" viewBox="0 0 34 34" fill="none" xmlns="http://www.w3.org/2000/svg">
<path d="M13.991 10.6246C13.8928 10.7251 13.8379 10.8599 13.8379 11.0004C13.8379 11.1408 13.8928 11.2757 13.991 11.3761L19.4731 17L13.991 22.6227C13.8928 22.7232 13.8379 22.858 13.8379 22.9985C13.8379 23.1389 13.8928 23.2738 13.991 23.3742C14.0386 23.4232 14.0957 23.4621 14.1587 23.4887C14.2217 23.5153 14.2893 23.529 14.3577 23.529C14.4261 23.529 14.4937 23.5153 14.5567 23.4887C14.6197 23.4621 14.6768 23.4232 14.7245 23.3742L20.5542 17.3926C20.6566 17.2876 20.7139 17.1467 20.7139 17C20.7139 16.8533 20.6566 16.7124 20.5542 16.6074L14.7245 10.6257C14.6768 10.5767 14.6197 10.5378 14.5567 10.5112C14.4937 10.4846 14.4261 10.4709 14.3577 10.4709C14.2893 10.4709 14.2217 10.4846 14.1587 10.5112C14.0957 10.5378 14.0386 10.5767 13.991 10.6257V10.6246Z" fill="#FFCE1B"/>
<circle cx="17" cy="17" r="16.75" stroke="#FFCE1B" stroke-width="0.5"/>
</svg>
